<svg id="Group_50" data-name="Group 50" xmlns="http://www.w3.org/2000/svg" width="540" height="569.617" viewBox="0 0 540 569.617">
  <ellipse id="Ellipse_17" data-name="Ellipse 17" cx="270" cy="14" rx="270" ry="14" transform="translate(0 541.617)" fill="#e6e6e6"/>
  <path id="Path_113" data-name="Path 113" d="M894.17,539.794v3.344s6.02,21.4-1.338,21.4S882.8,543.807,882.8,543.807v-4.013Z" transform="translate(-395.497 -186.213)" fill="#ffb8b8"/>
  <path id="Path_114" data-name="Path 114" d="M723.346,434.659l1.338-5.351s7.358-16.722,13.378-13.378-2.676,16.053-2.676,16.053l-1.338,3.344Z" transform="translate(-358.448 -157.331)" fill="#ffb8b8"/>
  <path id="Path_115" data-name="Path 115" d="M531.111,672.8l1.338,11.37,12.708,2.007V671.465Z" transform="translate(-123.405 -156.016)" fill="#ffb8b8"/>
  <path id="Path_116" data-name="Path 116" d="M622.6,668.446l1.337,16.722,14.716-2.007-2.676-16.053Z" transform="translate(-144.663 -155.004)" fill="#ffb8b8"/>
  <path id="Path_117" data-name="Path 117" d="M522.459,500.464l-2.675.669,7.357,70.9v63.544l18.728-3.345,9.365-111.7L584,575.378l14.046,55.517,22.073-4.013-18.06-69.563L590.015,491.1Z" transform="translate(-120.773 -114.108)" fill="#2f2e41"/>
  <path id="Path_118" data-name="Path 118" d="M780.147,761.3s-6.02-4.013-8.026-1.338-10.7,16.053-10.7,16.053-21.4,22.073,0,21.4c0,0,14.046,0,16.722-8.026a5.1,5.1,0,0,1,5.351-4.013c4.682,0,10.033-4.682,10.033-7.358s-4.682-16.185-6.689-14.112S780.147,761.3,780.147,761.3Z" transform="translate(-365.083 -237.156)" fill="#2f2e41"/>
  <path id="Path_119" data-name="Path 119" d="M878.193,761.3s6.02-4.013,8.026-1.338,10.7,16.053,10.7,16.053,21.4,22.073,0,21.4c0,0-14.046,0-16.722-8.026a5.1,5.1,0,0,0-5.351-4.013c-4.682,0-10.033-4.682-10.033-7.358s4.682-16.185,6.689-14.112S878.193,761.3,878.193,761.3Z" transform="translate(-391.318 -237.156)" fill="#2f2e41"/>
  <circle id="Ellipse_18" data-name="Ellipse 18" cx="17.656" cy="17.656" r="17.656" transform="translate(385.702 238.603)" fill="#ffb8b8"/>
  <path id="Path_120" data-name="Path 120" d="M523.705,348.478l9.364,11.37L549.79,345.8l-12.039-9.364Z" transform="translate(-121.684 -78.172)" fill="#ffb8b8"/>
  <path id="Path_121" data-name="Path 121" d="M772.571,441.057l.547-4.95,18.777-10.789L817.4,422.9a6.026,6.026,0,0,1,6.569,5.433l9.467,100.348,3.344,8.7s-58.862,33.444-72.239,8.7L774.578,493.9l-20.735-39.464Z" transform="translate(-365.534 -159.046)" fill="#d0cde1"/>
  <path id="Path_122" data-name="Path 122" d="M837.49,424.567a5.5,5.5,0,0,0,1.192-.34,6.046,6.046,0,0,1,6.919,2.107l30.015,41.041,11.371,47.49H870.934l-10.7-32.106-17.391-22.742Z" transform="translate(-384.969 -159.278)" fill="#d0cde1"/>
  <path id="Path_123" data-name="Path 123" d="M500.767,377.183l-5.351,1.338-16.053,14.046,5.351-32.106-13.378-2.676L460.969,411.63l7.357,7.357,41.805-17.056Z" transform="translate(-107.107 -83.132)" fill="#d0cde1"/>
  <path id="Path_124" data-name="Path 124" d="M773.513,406.164s-7.252-10.65-11.4-7.143-15.788,10.385-18.24,4.941,6.972-15.419,14.084-17.8,19.6-5.554,23.519,4.961a45.984,45.984,0,0,1,2.3,20.822Z" transform="translate(-363.124 -149.962)" fill="#2f2e41"/>
  <ellipse id="Ellipse_19" data-name="Ellipse 19" cx="1.919" cy="3.454" rx="1.919" ry="3.454" transform="translate(406.96 252.413) rotate(-19.977)" fill="#ffb8b8"/>
  <path id="Path_125" data-name="Path 125" d="M591.682,211.954h-3.07V127.862a48.67,48.67,0,0,0-48.67-48.67H361.781a48.67,48.67,0,0,0-48.67,48.67V589.2a48.67,48.67,0,0,0,48.67,48.67h178.16a48.67,48.67,0,0,0,48.671-48.67V271.812h3.07Z" transform="translate(-263.129 -79.191)" fill="#3f3d56"/>
  <path id="Path_126" data-name="Path 126" d="M545.97,95.686H522.714a17.268,17.268,0,0,1-15.988,23.79H404.661a17.268,17.268,0,0,1-15.988-23.79H366.952a36.346,36.346,0,0,0-36.346,36.346v460.66a36.346,36.346,0,0,0,36.346,36.346H545.97a36.347,36.347,0,0,0,36.346-36.347V132.033A36.346,36.346,0,0,0,545.97,95.686Z" transform="translate(-267.193 -83.024)" fill="#fff"/>
  <rect id="Rectangle_32" data-name="Rectangle 32" width="63.454" height="5.893" transform="translate(150.703 136.414)" fill="#6c63ff"/>
  <rect id="Rectangle_33" data-name="Rectangle 33" width="110.594" height="5.893" transform="translate(150.703 156.799)" fill="#e6e6e6"/>
  <rect id="Rectangle_34" data-name="Rectangle 34" width="110.486" height="5.893" transform="translate(150.703 177.183)" fill="#e6e6e6"/>
  <rect id="Rectangle_35" data-name="Rectangle 35" width="47.141" height="47.141" transform="translate(90.412 136.502)" fill="#6c63ff"/>
  <rect id="Rectangle_36" data-name="Rectangle 36" width="63.454" height="5.893" transform="translate(150.703 260.159)" fill="#6c63ff"/>
  <rect id="Rectangle_37" data-name="Rectangle 37" width="110.594" height="5.893" transform="translate(150.703 280.543)" fill="#e6e6e6"/>
  <rect id="Rectangle_38" data-name="Rectangle 38" width="110.486" height="5.893" transform="translate(150.703 300.927)" fill="#e6e6e6"/>
  <rect id="Rectangle_39" data-name="Rectangle 39" width="47.141" height="47.141" transform="translate(90.412 260.246)" fill="#6c63ff"/>
  <rect id="Rectangle_40" data-name="Rectangle 40" width="63.454" height="5.893" transform="translate(150.703 383.903)" fill="#6c63ff"/>
  <rect id="Rectangle_41" data-name="Rectangle 41" width="110.594" height="5.893" transform="translate(150.703 404.287)" fill="#e6e6e6"/>
  <rect id="Rectangle_42" data-name="Rectangle 42" width="110.486" height="5.893" transform="translate(150.703 424.672)" fill="#e6e6e6"/>
  <rect id="Rectangle_43" data-name="Rectangle 43" width="47.141" height="47.141" transform="translate(90.412 383.991)" fill="#6c63ff"/>
</svg>
