<svg xmlns="http://www.w3.org/2000/svg" width="118.409" height="108" viewBox="0 0 118.409 108">
  <g id="Group_94" data-name="Group 94" transform="translate(-0.002 -0.001)">
    <rect id="Rectangle_55" data-name="Rectangle 55" width="103.342" height="9.395" transform="translate(2.831 38.839) rotate(-16.244)" fill="#3f3d56"/>
    <path id="Path_270" data-name="Path 270" d="M330.755,271.758l-14.624-50.192a1.461,1.461,0,0,1,.994-1.812l96.812-28.207a1.463,1.463,0,0,1,1.812.994L428.7,237.008l-.4.117-12.956-44.466a1.046,1.046,0,0,0-1.294-.71l-96.812,28.207a1.044,1.044,0,0,0-.71,1.294l14.624,50.192Z" transform="translate(-316.071 -191.488)" fill="#3f3d56"/>
    <path id="Path_271" data-name="Path 271" d="M738.492,359.023a1.36,1.36,0,0,1-1.3-.978l-2.453-8.418a1.359,1.359,0,0,1,.923-1.682l8.418-2.453a1.359,1.359,0,0,1,1.682.923l2.453,8.418a1.359,1.359,0,0,1-.923,1.682l-8.418,2.453A1.353,1.353,0,0,1,738.492,359.023Z" transform="translate(-647.286 -313.296)" fill="#6c63ff"/>
    <path id="Path_272" data-name="Path 272" d="M366.7,329.455a2.447,2.447,0,0,0-.09-.255,2.505,2.505,0,0,0-4.783,1.393,2.369,2.369,0,0,0,.061.263,2.509,2.509,0,0,0,2.407,1.8,2.451,2.451,0,0,0,.7-.1A2.508,2.508,0,0,0,366.7,329.455Zm-1.823,2.7a2.09,2.09,0,0,1-2.589-1.42,2.384,2.384,0,0,1-.059-.263,2.087,2.087,0,0,1,3.975-1.157,1.741,1.741,0,0,1,.094.253A2.089,2.089,0,0,1,364.881,332.159Z" transform="translate(-352.245 -299.222)" fill="#6c63ff"/>
    <path id="Path_273" data-name="Path 273" d="M350.087,335.32a2.3,2.3,0,0,1,.879-2.517,2.3,2.3,0,1,0,1.215,4.169A2.3,2.3,0,0,1,350.087,335.32Z" transform="translate(-341.774 -303.297)" fill="#6c63ff"/>
    <path id="Path_274" data-name="Path 274" d="M602.666,390.93a1.262,1.262,0,0,0-1.555-.877l-13.86,3.877-1.493.418h9.374l1.493-.418,5.167-1.445A1.263,1.263,0,0,0,602.666,390.93Z" transform="translate(-529.453 -348.56)" fill="#ccc"/>
    <path id="Path_275" data-name="Path 275" d="M531.567,377.067a1.262,1.262,0,0,0-1.555-.875l-20.8,5.816a1.267,1.267,0,0,0-.912,1.372h5.384l1.495-.418,15.512-4.338a1.264,1.264,0,0,0,.875-1.557Z" transform="translate(-468.161 -337.593)" fill="#ccc"/>
    <path id="Path_276" data-name="Path 276" d="M488.539,408.8H387.7a1.463,1.463,0,0,0-1.461,1.461v59.709a1.463,1.463,0,0,0,1.461,1.461H488.539A1.463,1.463,0,0,0,490,469.968V410.259A1.463,1.463,0,0,0,488.539,408.8Zm1.044,61.17a1.044,1.044,0,0,1-1.044,1.044H387.7a1.044,1.044,0,0,1-1.044-1.044V410.259a1.044,1.044,0,0,1,1.044-1.044H488.539a1.044,1.044,0,0,1,1.044,1.044Z" transform="translate(-371.59 -363.429)" fill="#3f3d56"/>
    <path id="Path_277" data-name="Path 277" d="M430.742,428.811a2.505,2.505,0,1,1,2.505-2.505A2.505,2.505,0,0,1,430.742,428.811Zm0-4.593a2.088,2.088,0,1,0,2.088,2.088A2.088,2.088,0,0,0,430.742,424.218Z" transform="translate(-404.818 -375.299)" fill="#6c63ff"/>
    <path id="Path_278" data-name="Path 278" d="M415.907,427.1a2.3,2.3,0,0,1,1.547-2.171,2.3,2.3,0,1,0,0,4.342A2.3,2.3,0,0,1,415.907,427.1Z" transform="translate(-393.877 -376.09)" fill="#6c63ff"/>
    <path id="Path_279" data-name="Path 279" d="M481.76,541.973a1.881,1.881,0,0,1-1.879-1.879v-5.637a1.879,1.879,0,0,1,3.758,0v5.637A1.881,1.881,0,0,1,481.76,541.973Z" transform="translate(-445.681 -461.367)" fill="#6c63ff"/>
    <path id="Path_280" data-name="Path 280" d="M505.76,541.973a1.881,1.881,0,0,1-1.879-1.879v-5.637a1.879,1.879,0,0,1,3.758,0v5.637A1.881,1.881,0,0,1,505.76,541.973Z" transform="translate(-464.67 -461.367)" fill="#6c63ff"/>
    <path id="Path_281" data-name="Path 281" d="M529.76,541.973a1.881,1.881,0,0,1-1.879-1.879v-5.637a1.879,1.879,0,0,1,3.758,0v5.637A1.881,1.881,0,0,1,529.76,541.973Z" transform="translate(-483.66 -461.367)" fill="#6c63ff"/>
    <path id="Path_282" data-name="Path 282" d="M566.76,541.973a1.881,1.881,0,0,1-1.879-1.879v-5.637a1.879,1.879,0,0,1,3.758,0v5.637A1.881,1.881,0,0,1,566.76,541.973Z" transform="translate(-512.935 -461.367)" fill="#6c63ff"/>
    <path id="Path_283" data-name="Path 283" d="M590.76,541.973a1.881,1.881,0,0,1-1.879-1.879v-5.637a1.879,1.879,0,0,1,3.758,0v5.637A1.881,1.881,0,0,1,590.76,541.973Z" transform="translate(-531.924 -461.367)" fill="#6c63ff"/>
    <path id="Path_284" data-name="Path 284" d="M614.76,541.973a1.881,1.881,0,0,1-1.879-1.879v-5.637a1.879,1.879,0,0,1,3.758,0v5.637a1.881,1.881,0,0,1-1.879,1.879Z" transform="translate(-550.914 -461.367)" fill="#6c63ff"/>
    <path id="Path_285" data-name="Path 285" d="M651.76,541.973a1.881,1.881,0,0,1-1.879-1.879v-5.637a1.879,1.879,0,0,1,3.758,0v5.637A1.881,1.881,0,0,1,651.76,541.973Z" transform="translate(-580.189 -461.367)" fill="#6c63ff"/>
    <path id="Path_286" data-name="Path 286" d="M675.76,541.973a1.881,1.881,0,0,1-1.879-1.879v-5.637a1.879,1.879,0,0,1,3.758,0v5.637A1.881,1.881,0,0,1,675.76,541.973Z" transform="translate(-599.179 -461.367)" fill="#6c63ff"/>
    <path id="Path_287" data-name="Path 287" d="M699.76,541.973a1.881,1.881,0,0,1-1.879-1.879v-5.637a1.879,1.879,0,0,1,3.758,0v5.637A1.881,1.881,0,0,1,699.76,541.973Z" transform="translate(-618.168 -461.367)" fill="#6c63ff"/>
    <path id="Path_288" data-name="Path 288" d="M736.76,541.973a1.881,1.881,0,0,1-1.879-1.879v-5.637a1.879,1.879,0,0,1,3.758,0v5.637A1.881,1.881,0,0,1,736.76,541.973Z" transform="translate(-647.444 -461.367)" fill="#6c63ff"/>
    <path id="Path_289" data-name="Path 289" d="M760.76,541.973a1.881,1.881,0,0,1-1.879-1.879v-5.637a1.879,1.879,0,0,1,3.758,0v5.637A1.881,1.881,0,0,1,760.76,541.973Z" transform="translate(-666.433 -461.367)" fill="#6c63ff"/>
    <path id="Path_290" data-name="Path 290" d="M784.76,541.973a1.881,1.881,0,0,1-1.879-1.879v-5.637a1.879,1.879,0,0,1,3.758,0v5.637A1.881,1.881,0,0,1,784.76,541.973Z" transform="translate(-685.423 -461.367)" fill="#6c63ff"/>
    <path id="Path_291" data-name="Path 291" d="M442.7,668.175H415.674a1.263,1.263,0,1,1,0-2.525H442.7a1.263,1.263,0,1,1,0,2.525Z" transform="translate(-393.88 -566.657)" fill="#e6e6e6"/>
    <path id="Path_292" data-name="Path 292" d="M466.87,642.175h-9.7a1.263,1.263,0,1,1,0-2.525h9.7a1.263,1.263,0,0,1,0,2.525Z" transform="translate(-426.715 -546.085)" fill="#e6e6e6"/>
    <rect id="Rectangle_56" data-name="Rectangle 56" width="102.925" height="0.418" transform="translate(14.993 57.85)" fill="#3f3d56"/>
  </g>
</svg>
