<svg id="Group_93" data-name="Group 93" xmlns="http://www.w3.org/2000/svg" xmlns:xlink="http://www.w3.org/1999/xlink" width="167.044" height="108" viewBox="0 0 167.044 108">
  <defs>
    <linearGradient id="linear-gradient" x1="0.5" y1="1" x2="0.5" gradientUnits="objectBoundingBox">
      <stop offset="0" stop-color="gray" stop-opacity="0.251"/>
      <stop offset="0.54" stop-color="gray" stop-opacity="0.122"/>
      <stop offset="1" stop-color="gray" stop-opacity="0.102"/>
    </linearGradient>
  </defs>
  <rect id="Rectangle_54" data-name="Rectangle 54" width="167.044" height="1.221" transform="translate(0 106.779)" fill="#85848b"/>
  <path id="Path_175" data-name="Path 175" d="M791.622,650.109c0,.939-5.473,3.677-11.975,3.677s-11.567-2.737-11.567-3.677,5.27-.637,11.777-.637S791.622,649.168,791.622,650.109Z" transform="translate(-659.279 -564.884)" fill="#504f60"/>
  <path id="Path_176" data-name="Path 176" d="M791.622,653.72c0,.939-5.473,3.676-11.975,3.676s-11.567-2.737-11.567-3.676" transform="translate(-659.279 -568.495)" opacity="0.2"/>
  <path id="Path_177" data-name="Path 177" d="M502.214,532.279a7.267,7.267,0,0,0,3.161-.107c.159-.049.334-.159.318-.318a.385.385,0,0,0-.072-.159,9.829,9.829,0,0,1-.955-1.819.159.159,0,0,0-.059-.083.149.149,0,0,0-.1,0c-.466.123-.869.423-1.332.552a1.893,1.893,0,0,1-.726.054c-.21-.024-.5-.2-.688-.175C501.868,530.92,502.132,531.569,502.214,532.279Z" transform="translate(-435.345 -464.284)" fill="#6c63ff"/>
  <path id="Path_178" data-name="Path 178" d="M623.879,515.32a5.522,5.522,0,0,0,1.827-1.716.3.3,0,0,0,.049-.148.306.306,0,0,0-.059-.143,5.915,5.915,0,0,0-1.485-1.6,4.329,4.329,0,0,0-.828.764c-.175.185-.659.477-.664.759,0,.159.185.344.271.477q.174.258.331.525A6.225,6.225,0,0,1,623.879,515.32Z" transform="translate(-537.054 -449.086)" fill="#6c63ff"/>
  <path id="Path_179" data-name="Path 179" d="M473.628,540.411a.708.708,0,0,1-.127.462.626.626,0,0,1-.267.159c-1.475.528-3.183-.131-4.655.39-.3.107-.589.261-.893.363a4.851,4.851,0,0,1-1.114.2c-.52.049-1.044.081-1.566.1a3.764,3.764,0,0,1-1.181-.1,1.418,1.418,0,0,1-.906-.718.689.689,0,0,1-.045-.511.551.551,0,0,1,.1-.159,1.4,1.4,0,0,1,.347-.282l.543-.35a3.645,3.645,0,0,1,.823-.436c.215-.07.442-.1.66-.159a4.484,4.484,0,0,0,1.886-1.409l.738-.788a.743.743,0,0,1,.256-.205.709.709,0,0,1,.318-.03,4.255,4.255,0,0,1,2.013.675,2.61,2.61,0,0,0,.5.293,1.773,1.773,0,0,0,1.388-.172c.189-.1.148-.159.228-.341s.274-.3.442-.132a.469.469,0,0,1,.105.2,5.647,5.647,0,0,1,.1,1.641.723.723,0,0,0,.032.255,1.441,1.441,0,0,0,.145.236.547.547,0,0,1,.03.06A1.619,1.619,0,0,1,473.628,540.411Z" transform="translate(-402.623 -470.285)" fill="#514e7f"/>
  <path id="Path_180" data-name="Path 180" d="M473.628,554.763a.708.708,0,0,1-.127.462.625.625,0,0,1-.267.159c-1.475.528-3.183-.13-4.655.39-.3.107-.589.261-.893.363a4.858,4.858,0,0,1-1.114.2c-.52.049-1.044.081-1.566.1a3.766,3.766,0,0,1-1.181-.1,1.418,1.418,0,0,1-.906-.718.689.689,0,0,1-.045-.511.552.552,0,0,1,.1-.159c.086.18.148.419.2.5a1.033,1.033,0,0,0,.691.5,1.716,1.716,0,0,0,.637-.081,32.054,32.054,0,0,0,4.042-.837,9.341,9.341,0,0,1,1.324-.509,10.4,10.4,0,0,1,1.432-.116c.754-.061,1.485-.288,2.228-.407A1.618,1.618,0,0,1,473.628,554.763Z" transform="translate(-402.623 -484.637)" fill="#464353"/>
  <path id="Path_181" data-name="Path 181" d="M607.079,520.317a2.683,2.683,0,0,1-.815,1.452,9.486,9.486,0,0,0-1.141,1.248,10.043,10.043,0,0,1-1.05,1.8,2.879,2.879,0,0,1-.637.454,4.437,4.437,0,0,1-.82.377,6.113,6.113,0,0,1-2.316.126,2.084,2.084,0,0,1-.735-.142,2.214,2.214,0,0,1-.306-.188,1.459,1.459,0,0,1-.477-.477.477.477,0,0,1-.046-.347.815.815,0,0,1,.221-.337,5.25,5.25,0,0,1,.56-.5,3.358,3.358,0,0,0,.729-.637,2.056,2.056,0,0,0,.282-.637,5.649,5.649,0,0,0,.205-1.218,3.857,3.857,0,0,1,.084-.815c.118-.42.43-.8.395-1.23a.307.307,0,0,1,.016-.186.259.259,0,0,1,.146-.091,2.594,2.594,0,0,1,.761-.177.886.886,0,0,1,.707.277c.108.131.18.318.339.369a.538.538,0,0,0,.242.01,2.027,2.027,0,0,0,1.114-.342,1.389,1.389,0,0,0,.462-1.014c0-.145-.065-.3.159-.318.169-.022.3.159.388.271a3.772,3.772,0,0,1,.745,1.356.4.4,0,0,1,.142-.027.616.616,0,0,1,.508.259A1.011,1.011,0,0,1,607.079,520.317Z" transform="translate(-516.875 -454.18)" fill="#514e7f"/>
  <path id="Path_182" data-name="Path 182" d="M607.4,528.651a2.683,2.683,0,0,1-.815,1.452,9.49,9.49,0,0,0-1.141,1.248,10.049,10.049,0,0,1-1.05,1.8,2.881,2.881,0,0,1-.637.454,4.446,4.446,0,0,1-.82.377,6.115,6.115,0,0,1-2.316.126,2.082,2.082,0,0,1-.735-.142,2.215,2.215,0,0,1-.306-.188,1.461,1.461,0,0,1-.477-.477,1.164,1.164,0,0,1,.477-.115c.344.019.6.344.925.444.469.142.937-.189,1.413-.3a9.568,9.568,0,0,0,.944-.159,2.332,2.332,0,0,0,.7-.423,3.559,3.559,0,0,0,.746-.719,4.624,4.624,0,0,0,.438-.874,12.5,12.5,0,0,1,.885-1.693,1.2,1.2,0,0,1,.18-.236,2.509,2.509,0,0,1,.244-.177,1.85,1.85,0,0,0,.562-1.025,1.788,1.788,0,0,1,.126-.342.616.616,0,0,1,.508.259A1.011,1.011,0,0,1,607.4,528.651Z" transform="translate(-517.193 -462.515)" fill="#464353"/>
  <path id="Path_183" data-name="Path 183" d="M438.26,201.223a3.376,3.376,0,0,1,.955,1.114,23,23,0,0,1,1.432,4.311c.419-.422,2.069-.49,2.492-.912.177-.177,1.13-1.058,1.273-1.264s1.206-.637,1.323-.853c.435-.778-3.081-3.727-2.631-4.5a.2.2,0,0,0,.037-.121.2.2,0,0,0-.059-.094,5.273,5.273,0,0,0-1.017-.7,1.613,1.613,0,0,1-.775-.923,3.342,3.342,0,0,0-.9.608q-.968.829-1.9,1.692c-.243.226-.715.527-.828.85C437.528,200.787,438.028,201.033,438.26,201.223Z" transform="translate(-381.43 -184.707)" fill="#a1616a"/>
  <path id="Path_184" data-name="Path 184" d="M453.9,214.13a10.36,10.36,0,0,0-1.506,1.232,3,3,0,0,0-.955,1.534c-.045.237-.038.477-.075.718-.159,1.042-1.06,1.806-1.458,2.782a4.822,4.822,0,0,0-.253.931,11,11,0,0,0-.183,1.827c-.01.594.573,1,.786,1.557a9.507,9.507,0,0,1,.379,1.692,20.043,20.043,0,0,0,.955,3.135c.785,2.168,3.328,8.16,4.113,10.329,2.4-.6,8.806-1.989,10.935-3.261.71-.423-4.926-5.2-4.167-5.529a.283.283,0,0,0,.213-.4c-.759-3.32-3.134-6.048-4.211-9.28a28.163,28.163,0,0,0-1.555-3.146c-.462-.966-.708-2.034-1.26-2.952a1.862,1.862,0,0,0-.4-.5,2.375,2.375,0,0,0-.444-.269C454.5,214.375,454.2,214.284,453.9,214.13Z" transform="translate(-391.377 -198.867)" fill="#514e7f"/>
  <circle id="Ellipse_26" data-name="Ellipse 26" cx="3.764" cy="3.764" r="3.764" transform="translate(53.194 8.61)" fill="#a1616a"/>
  <path id="Path_185" data-name="Path 185" d="M466.4,205.323a1.262,1.262,0,0,1,1.415-.2.684.684,0,0,1,.42.68l1.867.029a3.747,3.747,0,0,1,.885.081,1.286,1.286,0,0,1,.738.463c.022.03.048.067.086.072a.137.137,0,0,0,.086-.029,1.62,1.62,0,0,1,.929-.159,5.021,5.021,0,0,1,2.733,1.2.883.883,0,0,1,.318.4c.065.212-.013.477.159.629a22.409,22.409,0,0,0,1,5.093,2.284,2.284,0,0,0,.565.812,3.274,3.274,0,0,1,.6.9c.341.885-.129,1.926.2,2.814a4.82,4.82,0,0,0,.637,1.011,2.614,2.614,0,0,1,.544,1.305c.014.213-.013.428,0,.637a3.856,3.856,0,0,0,.159.845q.2.77.427,1.539a3.493,3.493,0,0,0,1.3,2.161,10.6,10.6,0,0,1-5.384-.021,2.793,2.793,0,0,1-.672-.336,3.869,3.869,0,0,1-1.179-1.9,8.972,8.972,0,0,1-.657-2.453,2.816,2.816,0,0,0-.113-.8,2.266,2.266,0,0,0-1.057-1,5.074,5.074,0,0,1-1.273-.99,1.978,1.978,0,0,1-.516-1.486c.032-.263.135-.516.145-.78a.611.611,0,0,0-.361-.637c-1.3-.395-1.926-1.938-2.215-3.269a10.5,10.5,0,0,1-.167-2.085l-.018-1.358a1.792,1.792,0,0,1-.586-1.288,1.528,1.528,0,0,0-.008-.427,1.176,1.176,0,0,0-.3-.454A4.049,4.049,0,0,1,466.4,205.323Z" transform="translate(-405.613 -191.181)" fill="#464353"/>
  <path id="Path_186" data-name="Path 186" d="M439.825,228.219a10.424,10.424,0,0,1-.041,1.264c-.037.159-.1.318-.146.466a2.737,2.737,0,0,0,.173,1.771,9.866,9.866,0,0,0,.906,1.568,2.547,2.547,0,0,1,.29.543,2.809,2.809,0,0,1,.111.619,19.227,19.227,0,0,0,.442,2.5,63.008,63.008,0,0,0,2.674,7.374.6.6,0,0,0,.363.247.66.66,0,0,0,.309-.064l.955-.366a.624.624,0,0,0,.221-.121.57.57,0,0,0,.137-.376c.068-.777-1.961-6.915-2.219-7.649a58.5,58.5,0,0,1-2.325-6.645,4.828,4.828,0,0,0-.683-2.125c-.193-.21-.127-.121-.358-.011a2.614,2.614,0,0,0-.337.177A1.1,1.1,0,0,0,439.825,228.219Z" transform="translate(-383.047 -209.773)" fill="#464353"/>
  <path id="Path_187" data-name="Path 187" d="M556.62,320.79" transform="translate(-481.474 -288.552)" fill="#464353"/>
  <path id="Path_188" data-name="Path 188" d="M458.227,226.124c.256,1.354.52,2.706.783,4.06l3.737-.979a2.627,2.627,0,0,0-.318-1.114c-.341-.855-.349-1.806-.624-2.685-.208-.668-.571-1.283-.767-1.956-.113-.392-.17-.8-.282-1.192a8.664,8.664,0,0,0-.439-1.138,7.125,7.125,0,0,0-.815-1.51,2.376,2.376,0,0,0-1.259.816,1.764,1.764,0,0,0-.232.8c-.065.839.239,1.682.138,2.516A7.4,7.4,0,0,0,458.227,226.124Z" transform="translate(-398.551 -203.475)" fill="#6c63ff"/>
  <path id="Path_189" data-name="Path 189" d="M477.239,331.057a4.463,4.463,0,0,1-.342,2.421,18.762,18.762,0,0,0-.761,3.645,3.155,3.155,0,0,1-.188.922c-.118.266-.318.49-.455.743a3.733,3.733,0,0,0-.285,2.238c.054.5.135,1,.236,1.494a3.78,3.78,0,0,1,.1,1.822c.3-.065.5.318.477.619a1.652,1.652,0,0,0,.029.9c.366.134.369.637.358,1.027a8.634,8.634,0,0,0,.255,2.005q.831,3.995,1.763,7.967c1.345.417,2.916.851,4.2.274a.842.842,0,0,0,.532-.535.933.933,0,0,0-.051-.411l-.608-2.212a4.063,4.063,0,0,1-.218-1.636c.059-.409.237-.85.037-1.211-.068-.124-.177-.221-.256-.339-.318-.466-.151-1.09-.126-1.655a1.311,1.311,0,0,0-.025-.379,1.893,1.893,0,0,0-.181-.415,6.353,6.353,0,0,1-.7-3.161.781.781,0,0,0-.056-.412,1.333,1.333,0,0,1-.1-.169.461.461,0,0,1,.033-.3,2.785,2.785,0,0,1-.49-.477.686.686,0,0,0,.118-1.073.358.358,0,0,0,.17-.616c-.078-.054-.181-.078-.237-.159-.086-.118-.016-.282.054-.407l.371-.67c.277-.5.339-1.114.637-1.592a11.93,11.93,0,0,0,.98-2.238l1.071-2.956.721.625a2.279,2.279,0,0,1,.592.675,2.912,2.912,0,0,1,.193.809c.264,1.6,1.273,3,1.647,4.576a3.014,3.014,0,0,0,.341,1.022,2.224,2.224,0,0,1,.194.293,1.552,1.552,0,0,1,.081.485,2.265,2.265,0,0,0,.955,1.623c.355.244.8.411.988.8a1.484,1.484,0,0,0,.159.339c.172.207.543.231.616.49.041.145-.035.318.046.446a.422.422,0,0,0,.177.132l1.036.517c1.159.579,1.751,1.91,2.605,2.879a6.206,6.206,0,0,1,.78,1.031c.369.66.54,1.49,1.163,1.91a1.76,1.76,0,0,1,.452.336c.2.258.124.619.142.944s.266.711.575.613a2.265,2.265,0,0,0,0,1.2,6.048,6.048,0,0,0,3.67-1.487,1.448,1.448,0,0,0,.6-1,.36.36,0,0,0-.045-.2.568.568,0,0,0-.234-.177c-.969-.525-1.26-1.743-1.751-2.731a23.66,23.66,0,0,0-1.592-2.433c-1.152-1.743-1.938-3.852-3.681-5a2.505,2.505,0,0,1-1.022-.9c-.107-.234-.119-.5-.2-.743a.645.645,0,0,0-.544-.477,3.335,3.335,0,0,0,.124-1.155,1.459,1.459,0,0,0-.057-.5,2.426,2.426,0,0,0-.256-.493,4.733,4.733,0,0,1-.656-2.546,4.175,4.175,0,0,0-.045-1.374c-.07-.221-.193-.423-.277-.637a3.977,3.977,0,0,1-.2-1.2l-.1-1.529a7.527,7.527,0,0,0-.2-1.512c-.318-1.187-.637-6.161-1.727-6.721s-2.963,3.267-4.191,3.342a5.458,5.458,0,0,0-1.592.307,7.755,7.755,0,0,0-2.168,1.432l-2.257,1.9A8.315,8.315,0,0,1,477.239,331.057Z" transform="translate(-412.981 -290.392)" fill="#464353"/>
  <path id="Path_190" data-name="Path 190" d="M415.092,164.065a2.837,2.837,0,0,1,2.19-1.068,5.1,5.1,0,0,1,2.421.608,2.992,2.992,0,0,0,.707.29c.4.081.84-.027,1.2.159a1.437,1.437,0,0,1,.528,1.432,2.63,2.63,0,0,0,.143,1.592,3.676,3.676,0,0,1,.275.415,1.373,1.373,0,0,1-.022.885,5.734,5.734,0,0,1-.457-.584.538.538,0,0,0-.659-.17c-.205.138-.2.39-.213.616s-.068.5-.282.57a.457.457,0,0,1-.477-.186c-.365-.446-.218-1.157-.579-1.606-.205-.255-.547-.379-.737-.646-.15-.21-.188-.477-.318-.7s-.435-.392-.637-.236a.86.86,0,0,0-.17.228.979.979,0,0,1-1.162.35,1.943,1.943,0,0,0-.5-.218.622.622,0,0,0-.575.318,1.243,1.243,0,0,0-.159.665,1.533,1.533,0,0,1-.124.912.944.944,0,0,1-.255.242.793.793,0,0,1-.882.091.662.662,0,0,1-.2-.618,4.994,4.994,0,0,1,.188-.653c.14-.493-.043-1.049.11-1.514A4.831,4.831,0,0,1,415.092,164.065Z" transform="translate(-361.666 -155.871)" fill="#464353"/>
  <path id="Path_191" data-name="Path 191" d="M432.757,204.437a.579.579,0,0,0,.035.345.549.549,0,0,0,.188.18,3.861,3.861,0,0,0,1.773.575.54.54,0,0,1,.245.064.431.431,0,0,1,.1.493,1.284,1.284,0,0,0-.113.525c.046.333.441.477.773.527a1.8,1.8,0,0,0,1.346-.263,2.08,2.08,0,0,0,.555-.832c.914-2.1,1.233-4.42,2.158-6.513a1.381,1.381,0,0,0,.138-.436.43.43,0,0,0-.172-.4c-.172-.107-.439-.046-.555-.213-.057-.084-.051-.2-.1-.288-.107-.189-.387-.159-.578-.269-.15-.08-.253-.244-.42-.275a.528.528,0,0,0-.434.188,5.6,5.6,0,0,0-1.13,1.9,22.294,22.294,0,0,1-1.617,3,1.749,1.749,0,0,0-.506-.992c-.285-.057-.649.442-.8.629A4,4,0,0,0,432.757,204.437Z" transform="translate(-377.314 -185.014)" fill="#6c63ff"/>
  <path id="Path_192" data-name="Path 192" d="M459.775,200.32a.762.762,0,0,0-.59.3,1.684,1.684,0,0,0-.247.8A6.915,6.915,0,0,1,458,203.93" transform="translate(-398.55 -187.255)" opacity="0.1"/>
  <path id="Path_193" data-name="Path 193" d="M465.068,204.31a.909.909,0,0,0-.772.463,2.6,2.6,0,0,0-.194.786,4.315,4.315,0,0,1-.772,1.654" transform="translate(-403.031 -190.61)" opacity="0.1"/>
  <path id="Path_194" data-name="Path 194" d="M241.5,360.383v-1.977a5.488,5.488,0,0,0-5.488-5.486H157.948a5.488,5.488,0,0,0-5.488,5.486v3.645Z" transform="translate(-141.638 -315.568)" fill="#33323d"/>
  <path id="Path_195" data-name="Path 195" d="M323.362,273.979s-.223,13.824,2.228,18.373,3.5,24.336,3.5,24.336,25.694,2.658,43.6-3.183,56-8.23,56-8.23L422.273,262s-31.718-2.034-49.761,6.571S323.362,273.979,323.362,273.979Z" transform="translate(-285.336 -238.945)" fill="#8dd070"/>
  <path id="Path_196" data-name="Path 196" d="M323.362,273.979s-.223,13.824,2.228,18.373,3.5,24.336,3.5,24.336,25.694,2.658,43.6-3.183,56-8.23,56-8.23L422.273,262s-31.718-2.034-49.761,6.571S323.362,273.979,323.362,273.979Z" transform="translate(-285.336 -238.945)" opacity="0.1"/>
  <path id="Path_197" data-name="Path 197" d="M358.285,295.171s-.8,11.407,1.213,15.051,2.11,19.915,2.11,19.915,23.123,1.073,39.572-4.526,51.013-9.231,51.013-9.231l-3.928-35.388s-28.6-.294-45.292,7.587S358.285,295.171,358.285,295.171Z" transform="translate(-314.571 -255.087)" fill="#8dd070"/>
  <ellipse id="Ellipse_27" data-name="Ellipse 27" cx="6.003" cy="12.876" rx="6.003" ry="12.876" transform="translate(79.007 39.233) rotate(-7.1)" opacity="0.1"/>
  <path id="Path_198" data-name="Path 198" d="M357.664,130.66s-30.814,7.8-45.344,21.526-45.12,20.227-45.12,20.227,4.03,13.224,7.757,16.8,10.8,22.09,10.8,22.09,25.269-5.357,40.516-16.415,50.781-25.024,50.781-25.024Z" transform="translate(-238.116 -128.682)" opacity="0.2"/>
  <path id="Path_199" data-name="Path 199" d="M264.29,159.981s4.028,13.226,7.752,16.8,10.8,22.089,10.8,22.089,25.272-5.355,40.521-16.413,50.78-25.019,50.78-25.019L354.753,118.23s-30.812,7.8-45.343,21.526S264.29,159.981,264.29,159.981Z" transform="translate(-235.669 -118.23)" fill="#8dd070"/>
  <path id="Path_200" data-name="Path 200" d="M264.29,159.981s4.028,13.226,7.752,16.8,10.8,22.089,10.8,22.089,25.272-5.355,40.521-16.413,50.78-25.019,50.78-25.019L354.753,118.23s-30.812,7.8-45.343,21.526S264.29,159.981,264.29,159.981Z" transform="translate(-235.669 -118.23)" opacity="0.1"/>
  <path id="Path_201" data-name="Path 201" d="M308,182.609s2.736,11.1,5.774,13.953,8.117,18.3,8.117,18.3,22.336-6.076,36.273-16.453,45.723-24.425,45.723-24.425l-14.6-32.486s-27.309,8.494-40.778,21.118S308,182.609,308,182.609Z" transform="translate(-272.423 -137.796)" fill="#8dd070"/>
  <ellipse id="Ellipse_28" data-name="Ellipse 28" cx="6.003" cy="12.876" rx="6.003" ry="12.876" transform="translate(68.913 33.172) rotate(-24.97)" opacity="0.1"/>
  <path id="Path_202" data-name="Path 202" d="M243.631,382.755v54.908a4.748,4.748,0,0,1-4.749,4.748H157.236a4.748,4.748,0,0,1-4.746-4.748V377.22a8.384,8.384,0,0,0,4.746.8h81.646A4.749,4.749,0,0,1,243.631,382.755Z" transform="translate(-141.663 -336.001)" opacity="0.1"/>
  <path id="Path_203" data-name="Path 203" d="M243.631,387.137v54.908a4.749,4.749,0,0,1-4.749,4.748H157.236a4.748,4.748,0,0,1-4.746-4.748V381.6a8.411,8.411,0,0,0,4.746.8h81.646A4.749,4.749,0,0,1,243.631,387.137Z" transform="translate(-141.663 -339.684)" fill="#504f60"/>
  <path id="Path_204" data-name="Path 204" d="M587.33,543.936V561.5H570.3a8.78,8.78,0,1,1,0-17.56Z" transform="translate(-485.594 -476.183)" opacity="0.1"/>
  <path id="Path_205" data-name="Path 205" d="M588.79,541v17.563H571.76a8.78,8.78,0,1,1,0-17.56Z" transform="translate(-486.822 -473.715)" fill="#33323d"/>
  <circle id="Ellipse_29" data-name="Ellipse 29" cx="3.423" cy="3.423" r="3.423" transform="translate(82.332 73.11)" opacity="0.1"/>
  <circle id="Ellipse_30" data-name="Ellipse 30" cx="3.423" cy="3.423" r="3.423" transform="translate(82.564 72.646)" fill="#6c63ff"/>
  <path id="Path_206" data-name="Path 206" d="M851.981,527.069c.135,1.466-.974,2.889-.651,4.324.07.307.2.6.25.907a3.488,3.488,0,0,1-.859,2.373l-4.17,6.118a3.8,3.8,0,0,1-.6.735c-.8.71-1.993.637-3.04.848a5.2,5.2,0,0,0-2.037.9.13.13,0,0,0-.019.178,1.751,1.751,0,0,0,1.515.711c.11.145,0,.357-.159.46-.224.159-.532.2-.576.576a.626.626,0,0,0,.076.382,1.186,1.186,0,0,0,.729.508,4.331,4.331,0,0,0,4.084-1.389c1.081-1.055,1.856-2.387,2.916-3.462.587-.594,1.254-1.1,1.859-1.679a21.281,21.281,0,0,0,3.049-3.945,4.4,4.4,0,0,0,.661-1.343c.115-.489.06-.982.189-1.455a5.357,5.357,0,0,1,1-1.635,5.408,5.408,0,0,0,1.136-3.519,3.373,3.373,0,0,0-2.059-2.92,1.83,1.83,0,0,0-1.154-.07,2.741,2.741,0,0,0-1.175.934l-.8.915a2.146,2.146,0,0,0-.462.7.734.734,0,0,0,.159.778" transform="translate(-720.453 -459.934)" fill="#fbbebe"/>
  <path id="Path_207" data-name="Path 207" d="M851.981,527.069c.135,1.466-.974,2.889-.651,4.324.07.307.2.6.25.907a3.488,3.488,0,0,1-.859,2.373l-4.17,6.118a3.8,3.8,0,0,1-.6.735c-.8.71-1.993.637-3.04.848a5.2,5.2,0,0,0-2.037.9.13.13,0,0,0-.019.178,1.751,1.751,0,0,0,1.515.711c.11.145,0,.357-.159.46-.224.159-.532.2-.576.576a.626.626,0,0,0,.076.382,1.186,1.186,0,0,0,.729.508,4.331,4.331,0,0,0,4.084-1.389c1.081-1.055,1.856-2.387,2.916-3.462.587-.594,1.254-1.1,1.859-1.679a21.281,21.281,0,0,0,3.049-3.945,4.4,4.4,0,0,0,.661-1.343c.115-.489.06-.982.189-1.455a5.357,5.357,0,0,1,1-1.635,5.408,5.408,0,0,0,1.136-3.519,3.373,3.373,0,0,0-2.059-2.92,1.83,1.83,0,0,0-1.154-.07,2.741,2.741,0,0,0-1.175.934l-.8.915a2.146,2.146,0,0,0-.462.7.734.734,0,0,0,.159.778" transform="translate(-720.453 -459.934)" opacity="0.05"/>
  <path id="Path_208" data-name="Path 208" d="M911.475,768.194a4.827,4.827,0,0,1-3.1.46c-.17-.021-.372-.033-.477.1-.159.191.029.478.223.625a4.591,4.591,0,0,0,2.131.877,14.031,14.031,0,0,0,2.085.138,35.241,35.241,0,0,0,5.7-.208.806.806,0,0,0,.318-.092.582.582,0,0,0,.235-.358,1.421,1.421,0,0,0-.495-1.356,4.156,4.156,0,0,0-1.329-.713l-1.655-.645a4.253,4.253,0,0,0-1.432-.52C912.882,766.558,912.133,767.809,911.475,768.194Z" transform="translate(-776.791 -663.324)" fill="#3f3d56"/>
  <path id="Path_209" data-name="Path 209" d="M911.475,768.194a4.827,4.827,0,0,1-3.1.46c-.17-.021-.372-.033-.477.1-.159.191.029.478.223.625a4.591,4.591,0,0,0,2.131.877,14.031,14.031,0,0,0,2.085.138,35.241,35.241,0,0,0,5.7-.208.806.806,0,0,0,.318-.092.582.582,0,0,0,.235-.358,1.421,1.421,0,0,0-.495-1.356,4.156,4.156,0,0,0-1.329-.713l-1.655-.645a4.253,4.253,0,0,0-1.432-.52C912.882,766.558,912.133,767.809,911.475,768.194Z" transform="translate(-776.791 -663.324)" opacity="0.05"/>
  <path id="Path_210" data-name="Path 210" d="M931.357,589.466a4.4,4.4,0,0,0-1.232,3.11,6.931,6.931,0,0,0,.686,1.716,12.1,12.1,0,0,1,.694,2.413c.258,1.2.517,2.4.675,3.622.18,1.377-.665,5.36-.743,6.747a1.427,1.427,0,0,1-.291.936c-.091.1-.212.172-.253.3a.506.506,0,0,0,.056.35,3.851,3.851,0,0,0,2.069,1.9,16.367,16.367,0,0,0,3.99,1.049.8.8,0,0,0,.376-.049.73.73,0,0,0,.29-.333c.692-1.324.027-6.032.037-7.526.01-1.246.3-2.484.25-3.729-.045-1-.318-1.977-.409-2.973a17.545,17.545,0,0,1,.441-4.888c.229-1.238.46-2.476.754-3.7a7.106,7.106,0,0,1,.8-2.147c.318-.514.766-.944,1.136-1.432a6.465,6.465,0,0,0,1.273-4.733,12.4,12.4,0,0,0-2.6.691,8.085,8.085,0,0,0-2.314,1.488,19.452,19.452,0,0,0-1.458,1.8q-1.017,1.24-2.009,2.5Q932.443,588.011,931.357,589.466Z" transform="translate(-795.513 -506.569)" fill="#464353"/>
  <path id="Path_211" data-name="Path 211" d="M931.357,589.158a4.405,4.405,0,0,0-1.232,3.11,6.917,6.917,0,0,0,.686,1.717,12.091,12.091,0,0,1,.694,2.411c.258,1.2.517,2.4.675,3.622.18,1.378-.665,5.36-.743,6.747a1.431,1.431,0,0,1-.291.937c-.091.094-.212.17-.253.294a.505.505,0,0,0,.056.35,3.9,3.9,0,0,0,2.069,1.91,15.379,15.379,0,0,0,3.99.746.8.8,0,0,0,.376-.049.72.72,0,0,0,.29-.331c.692-1.324.027-5.73.037-7.226.01-1.248.3-2.484.25-3.731-.045-1-.318-1.977-.409-2.971a17.551,17.551,0,0,1,.441-4.889c.229-1.237.46-2.475.754-3.7a7.106,7.106,0,0,1,.8-2.147c.318-.514.766-.944,1.136-1.432a6.462,6.462,0,0,0,1.273-4.733,12.406,12.406,0,0,0-2.6.691,8.125,8.125,0,0,0-2.314,1.49,19.231,19.231,0,0,0-1.458,1.8q-1.017,1.24-2.009,2.5Q932.443,587.7,931.357,589.158Z" transform="translate(-795.513 -506.317)" opacity="0.05"/>
  <circle id="Ellipse_31" data-name="Ellipse 31" cx="3.863" cy="3.863" r="3.863" transform="translate(124.313 54.981)" fill="#fbbebe"/>
  <path id="Path_212" data-name="Path 212" d="M892.224,483.046a5,5,0,0,0,3.207,2.238l-.291,1.058c-.5,1.818-1.068,3.74-2.472,5a2.324,2.324,0,0,0-.391-1.808,6.815,6.815,0,0,0-1.311-1.37l-2.223-1.926a.67.67,0,0,1-.159-.188.566.566,0,0,1,0-.423,5.161,5.161,0,0,1,1.751-2.028,6.067,6.067,0,0,0,.88-1.025C891.657,481.941,891.933,482.578,892.224,483.046Z" transform="translate(-760.569 -424.364)" fill="#fbbebe"/>
  <path id="Path_213" data-name="Path 213" d="M852.763,447.185l-.088-.726c.609.159,1.189-.36,1.579-.9s.751-1.168,1.345-1.393a2.786,2.786,0,0,1,2.174.522,6.874,6.874,0,0,0,2.494.812,1.641,1.641,0,0,1,.412.067,1.434,1.434,0,0,1,.727,1.233,4.823,4.823,0,0,0,.269,1.509c.159.345.455.6.637.942.478.914.016,2.163.514,3.059l-1.238-1.135c-.113-.1-.272-.212-.4-.124-.1.07-.107.221-.146.342a.65.65,0,0,1-.882.318,2.527,2.527,0,0,1-.8-.721,4.829,4.829,0,0,0-1.964-1.49,2.521,2.521,0,0,0-2.069.137c-.578.326-1,1.087-1.709,1.114-.971.037-1.375-1.771-1.824-2.486a.875.875,0,0,0,.255-1.1C852.12,447.148,852.749,447.074,852.763,447.185Z" transform="translate(-729.675 -392.224)" fill="#464353"/>
  <path id="Path_214" data-name="Path 214" d="M551.041,316.835a7.515,7.515,0,0,0-.858.9,1.8,1.8,0,0,0-.395,1.157.592.592,0,0,0,.111.339.287.287,0,0,0,.318.1.428.428,0,0,0,.159-.14,7.674,7.674,0,0,1,.535-.579c.068-.068.159-.14.251-.115a.27.27,0,0,1,.108.072.732.732,0,0,1,.224.35.825.825,0,0,1-.247.678,1.737,1.737,0,0,0-.415.614.272.272,0,0,0,0,.2.3.3,0,0,0,.124.105,1.776,1.776,0,0,0,1.5.1c.318-.129.6-.35.93-.465a2.145,2.145,0,0,0,.411-.159.853.853,0,0,0,.365-.546,2.253,2.253,0,0,0,.024-.67,7.7,7.7,0,0,0-.548-2.519.318.318,0,0,0-.092-.134.294.294,0,0,0-.159-.043,3.785,3.785,0,0,0-1.469-.1,1.038,1.038,0,0,0-.347.309C551.5,316.363,551.041,316.728,551.041,316.835Z" transform="translate(-475.73 -284.456)" fill="#a1616a"/>
  <path id="Path_215" data-name="Path 215" d="M526.66,240.827c0-.388-.477-1.326.282-1.388,0-.415-.587-.673-.477-1.114.035-.146.159-.266.173-.415.048-.425-.719-.656-.592-1.063.048-.159.216-.251.253-.409.086-.368-.571-.532-.584-.909,0-.127.072-.247.065-.374,0-.159-.138-.28-.215-.419-.2-.355-.1-.9-.465-1.087.24.021.318-.336.22-.554s-.3-.407-.3-.649a.982.982,0,0,0,0-.264c-.067-.232-.447-.251-.511-.477a2.036,2.036,0,0,1-.008-.261c-.025-.18-.21-.294-.384-.345a1.564,1.564,0,0,1-.513-.183c-.111-.084-.24-.224-.36-.159-.045.027-.067.078-.1.116-.143.167-.417.094-.6-.029a2.452,2.452,0,0,1-.909-1.641c-.113-.632-.11-1.284-.251-1.91a4.067,4.067,0,0,0-.172-.573,3.015,3.015,0,0,1-.267-.57c-.029-.366.729-.116,1.017-.08a4.528,4.528,0,0,1,.826.159,8.832,8.832,0,0,1,.845.371c1.149.508,2.537.57,3.46,1.423a2.9,2.9,0,0,0,.955.775,4.317,4.317,0,0,1,.535.138c.438.205.506.786.745,1.206a2.365,2.365,0,0,1,.2.35,1.35,1.35,0,0,1,.064.446l.033,1.1a40.653,40.653,0,0,1-.089,5.537,4.538,4.538,0,0,0,.021,1.813c.048.159.115.309.159.47a2.864,2.864,0,0,1,.06.573l.026.715a.223.223,0,0,1-.035.159.229.229,0,0,1-.193.046c-.995-.089-2-.649-2.94-.31" transform="translate(-451.477 -208.809)" fill="#464353"/>
  <ellipse id="Ellipse_32" data-name="Ellipse 32" cx="11.771" cy="1.701" rx="11.771" ry="1.701" transform="translate(108.805 83.524)" fill="#504f60"/>
  <path id="Path_216" data-name="Path 216" d="M712.277,251.934c-.207-.886-.336-1.665-.336-1.665a3.43,3.43,0,0,0-.385-1.689v-.242h0v-1.783a6.079,6.079,0,0,1,.45-.934,7.03,7.03,0,0,0,0-2.613s-1.189-2.9-.9-4.732-2.441-8.155-2.441-8.155a8.054,8.054,0,0,1,.256-1.8,1.375,1.375,0,0,0,.035-.379v-.032a14.026,14.026,0,0,0-1-3.481l.129-4.326a12.717,12.717,0,0,0-.385-5.976c-.349-1.2-.571-2.152-.713-2.89-.016-.083-.032-.159-.045-.24,2.052-.318,3.619-.573,3.619-.573s-1.19-4.98-1.994-5.852-1.447-3.611-1.447-3.611-.419-3.516.258-4.544a6.833,6.833,0,0,0,.772-2.8s1.542-1.114,1.736-1.619a8.259,8.259,0,0,0,.514-2.209c0-.59-.193-1.114-.129-1.432s-.45-1.494-.193-2.055a1.508,1.508,0,0,0,.1-.54.069.069,0,0,0,0-.016h0a7.566,7.566,0,0,0-.135-1.461,4.146,4.146,0,0,0-1.528-.816l-.033-.134-.088-.35a1.691,1.691,0,0,0-.151-.089v-.127l-.014-.506.242-1.136c.477-1.977-2.163-2.271-2.163-2.271a1.393,1.393,0,0,0-.748-.656c-.53-.186-.088,2.973.159,3.183a12.454,12.454,0,0,1,1.041,1.63h0l.045.08a1.116,1.116,0,0,0-.121.127l.1.686.016.105a2.848,2.848,0,0,0-.422.718,1.548,1.548,0,0,1,.387,1.114,3.569,3.569,0,0,0,.159,1.369c-.029-.033-.368-.4-.707-.31s-1.286.374-1.286.374-.707.124-.637.28-.477.84-.477.84l-1.9-1.8c-.019-.054-.04-.108-.056-.159a4.385,4.385,0,0,1-.159-.8,4.345,4.345,0,0,0,.608-.193,1.312,1.312,0,0,0,.525-.337,2.035,2.035,0,0,0,.307-.82,12.061,12.061,0,0,1,.705-1.572,5.112,5.112,0,0,0,.358-2.83,1.846,1.846,0,0,0-.291-.828c-.31-.427-.874-.6-1.283-.941s-.673-.861-1.151-1.114a2.282,2.282,0,0,0-1.442-.124,7.772,7.772,0,0,0-2.694.98,1.4,1.4,0,0,1-.9.3,1.176,1.176,0,0,1-.649-.477.162.162,0,0,1,.008-.025.159.159,0,0,1-.021-.025,3.356,3.356,0,0,0-.3,1.423,1.757,1.757,0,0,0,.01.228v.145h0a.364.364,0,0,1-.014.1.725.725,0,0,1-.178.256,1.708,1.708,0,0,0-.159.212.263.263,0,0,1,.025-.078,1.132,1.132,0,0,0-.2.6.613.613,0,0,0,.143.43,2.069,2.069,0,0,0,.31.248,3.632,3.632,0,0,0-.057.637,3.678,3.678,0,0,0,1.792,3.137c.022.053.043.107.064.159a4.532,4.532,0,0,1,.345,2.069.973.973,0,0,1-.022.15c-.008.049-.048.053-.068.08h0s-3.14.032-3.879-.637-1.865,1.635-1.865,1.635-1.125.218-1.351,0-1.542-.03-1.542-.03a2.838,2.838,0,0,0-1.962-.716,5.759,5.759,0,0,0-1.432-.8h0l-.035-.013h0a1.6,1.6,0,0,0-.708-.089,14.288,14.288,0,0,1-1.994-1.961c-.45-.688-2.594-3.226-2.6-3.237v-.123l-.024-.369a1.324,1.324,0,0,1-.193.016c-.011-.037-.027-.08-.043-.129a7.12,7.12,0,0,0-.455-1.046s0-.466.135-.584a8.045,8.045,0,0,0-.056-1.829s-1.391-3.252-2.637-.824c0,0-2.355,1.571-.379,3.4,0,0,.8.382.9.684.073.2.341.745.52,1.114l.081.159-.022.019.029.306.013.118c-.372.212-.625.422-.563.579a3.479,3.479,0,0,1,.224.84s2.734,3.425,3.088,4.888c0,0,7.332,4.358,9.743,4.668l-.427,2.172a17.338,17.338,0,0,0-.1,1.775c.032.466-.29,2.583-.29,2.583a17.275,17.275,0,0,1-.772,3.549,5.978,5.978,0,0,0-.29,2.3,15.742,15.742,0,0,1-.477,2.645,6.757,6.757,0,0,0-.1,2.647s-1.221,2.8,1.7.9c0,0,1.432-.089,3.091-.146v.159c0,.213,0,.444-.011.686-.022,1.6-.032,3.82.041,5.488.129,2.957,1.03,8.809,1.03,8.809v2.946a4,4,0,0,0-.086.84,5.467,5.467,0,0,0,.8,2.943l.226,1.961a7.65,7.65,0,0,1,.538,2.069,1.085,1.085,0,0,1-.022.186,1.254,1.254,0,0,0-.025.3,16.938,16.938,0,0,0,.506,3.024s.032,2.147.353,2.273c.275.107-.368,1.237-.559,1.561a.452.452,0,0,1-.011-.061l-.04.064a1.523,1.523,0,0,0-.1.544.78.78,0,0,0,.357.754c.611.374.939.684.42.809a5.393,5.393,0,0,0-.567.119.246.246,0,0,0-.027-.072.341.341,0,0,0-.212.376,1.591,1.591,0,0,0,.189.723,7.882,7.882,0,0,0,.871,1.592l.247-.027a1.2,1.2,0,0,1-.143.266,1.025,1.025,0,0,1-.363.318,1.123,1.123,0,0,1-.441.151,1.241,1.241,0,0,0-.91.442.949.949,0,0,0,.111,1.477l2.3.8s3.957.514,3.747-.374-.337-1.665-.337-1.665a3.51,3.51,0,0,0-.318-1.574,2.06,2.06,0,0,0-.14-.232l.14-.014a7.286,7.286,0,0,1,.675-2.335c.089-.086.11-.159.089-.2.04-.107-.062-.169-.191-.205l-.029.078a1.877,1.877,0,0,0-.384-.043s-.129-1.027.29-1.4a.4.4,0,0,0,.081-.306,1.646,1.646,0,0,0-.044-.419.205.205,0,0,1-.014.025,15.078,15.078,0,0,0-.923-2.414,2.952,2.952,0,0,1,.226-1.307c.258-.374-.033-5.074-.033-5.074a15.358,15.358,0,0,0-.193-3.329,3.737,3.737,0,0,1,.353-2.3v-.083l-.037-.358a.091.091,0,0,0,0,.022c-.065-.6-.188-1.692-.279-2.195-.129-.716.033-4.138.033-4.138l.578-1.464,1.03,2.523,1.093,3.361a2.871,2.871,0,0,1,.554,1.432v.105a1.838,1.838,0,0,0-.013.224,2,2,0,0,0,.333,1.2,5.185,5.185,0,0,0,.74,1.991,1.787,1.787,0,0,1,.45,1.183,20.666,20.666,0,0,0,.8,2.706,4.023,4.023,0,0,1,.226,1.564h0v.083s.076.824.073,1.515v.247a.067.067,0,0,0,0-.018,2.4,2.4,0,0,1-.067.56l-.01.032a.405.405,0,0,1,.011-.116,5.846,5.846,0,0,0-.159,1.432,3.709,3.709,0,0,0,.613,2.387c.869,1,1.415.872,1.415.872s-.417,1.245-.933,1.494a.242.242,0,0,0-.054.035.533.533,0,0,0-.013-.073.606.606,0,0,0-.159.465,3.339,3.339,0,0,0,.637,1.845,1.04,1.04,0,0,0,.434.255.686.686,0,0,1-.081.049,1.728,1.728,0,0,1-.177.084.927.927,0,0,1-.263.068,1.226,1.226,0,0,0-.91.442.948.948,0,0,0,.111,1.475l2.3.8S712.484,252.82,712.277,251.934Z" transform="translate(-581.573 -166.626)" fill="url(#linear-gradient)"/>
  <path id="Path_217" data-name="Path 217" d="M796.9,640.424l-2.228-.8a.967.967,0,0,1-.108-1.477,1.191,1.191,0,0,1,.882-.442,1.056,1.056,0,0,0,.425-.151,1.019,1.019,0,0,0,.353-.318,1.644,1.644,0,0,0,.253-.861s2.445-.716,3.113,0a1.81,1.81,0,0,1,.3.434,3.638,3.638,0,0,1,.318,1.574s.124.777.326,1.665S796.9,640.424,796.9,640.424Z" transform="translate(-681.298 -553.645)" fill="#2d293d"/>
  <path id="Path_218" data-name="Path 218" d="M865.336,633.507l-2.228-.8a.965.965,0,0,1-.108-1.475,1.176,1.176,0,0,1,.88-.442.824.824,0,0,0,.255-.068,1.685,1.685,0,0,0,.172-.084,1.409,1.409,0,0,0,.606-1.182s2.443-.716,3.113,0a1.76,1.76,0,0,1,.234.318,3.536,3.536,0,0,1,.372,1.69s.124.778.318,1.665S865.336,633.507,865.336,633.507Z" transform="translate(-738.846 -547.827)" fill="#2d293d"/>
  <path id="Path_219" data-name="Path 219" d="M809.924,636.366a1.807,1.807,0,0,1,.3.435h0l-3.66.425a1.643,1.643,0,0,0,.253-.861S809.256,635.65,809.924,636.366Z" transform="translate(-691.635 -553.635)" opacity="0.1"/>
  <path id="Path_220" data-name="Path 220" d="M875.825,629.8v.686c-.57.937-3.325.732-4.125.263a1.672,1.672,0,0,0,.172-.084,1.409,1.409,0,0,0,.606-1.182s2.443-.716,3.113,0A1.761,1.761,0,0,1,875.825,629.8Z" transform="translate(-746.408 -547.844)" opacity="0.1"/>
  <path id="Path_221" data-name="Path 221" d="M802.057,422.337a6.24,6.24,0,0,0-.435.934v2.459c-.624,1.027-3.859.684-4.3.124s-.894-2.018-.4-2.271.9-1.494.9-1.494-.53.124-1.37-.872-.59-3.205-.435-3.734a11.028,11.028,0,0,0,0-2.3,4.627,4.627,0,0,0-.216-1.65,20.54,20.54,0,0,1-.778-2.706,1.832,1.832,0,0,0-.436-1.182,5.326,5.326,0,0,1-.716-1.993,2.042,2.042,0,0,1-.31-1.338,2.719,2.719,0,0,0-.53-1.619l-1.058-3.363-1-2.521-.56,1.463s-.159,3.423-.03,4.138.318,2.615.318,2.615a3.838,3.838,0,0,0-.342,2.3,15.72,15.72,0,0,1,.178,3.333s.28,4.7.03,5.072a3.039,3.039,0,0,0-.218,1.308s1.273,2.737.872,3.111-.28,1.4-.28,1.4.871,0,.5.374a7.5,7.5,0,0,0-.654,2.335l-3.764.441a7.83,7.83,0,0,1-.842-1.592c-.5-1.157.092-1.027.594-1.152s.185-.434-.407-.809-.248-1.214-.248-1.214.9-1.525.59-1.649-.342-2.273-.342-2.273a13.828,13.828,0,0,1-.466-3.237,6.193,6.193,0,0,0-.5-2.333l-.218-1.961a5.4,5.4,0,0,1-.684-3.705v-3.024s-.872-5.85-1-8.808c-.08-1.894-.057-4.479-.032-6.091.016-.9.032-1.5.032-1.5l13.445-1.4a11.239,11.239,0,0,0,.244,2c.138.738.353,1.695.691,2.89a13.132,13.132,0,0,1,.374,5.975l-.126,4.327s1.182,2.893.934,3.89a8.294,8.294,0,0,0-.251,1.808s2.645,6.318,2.365,8.155.871,4.732.871,4.732A7.155,7.155,0,0,1,802.057,422.337Z" transform="translate(-672.205 -343.341)" fill="#464353"/>
  <path id="Path_222" data-name="Path 222" d="M852.05,509.816l4.094-.546S853.825,511.637,852.05,509.816Z" transform="translate(-729.885 -447.035)" opacity="0.05"/>
  <path id="Path_223" data-name="Path 223" d="M870.106,484.14s.14,1.448-.746,1.993C869.36,486.133,870.947,485.884,870.106,484.14Z" transform="translate(-744.44 -425.904)" opacity="0.1"/>
  <path id="Path_224" data-name="Path 224" d="M846.907,455.2s-3.422,2.817-4.666,2.583S846.907,455.2,846.907,455.2Z" transform="translate(-721.492 -401.57)" opacity="0.1"/>
  <path id="Path_225" data-name="Path 225" d="M806.018,521s-2.6.59-2.677,1.635S806.018,521,806.018,521Z" transform="translate(-688.927 -456.898)" opacity="0.1"/>
  <path id="Path_226" data-name="Path 226" d="M808.885,602.56s-3.672.684-2.629,1.151a17.824,17.824,0,0,0,2.755.84S810.2,604.613,808.885,602.56Z" transform="translate(-691.223 -525.477)" opacity="0.05"/>
  <g id="Group_91" data-name="Group 91" transform="translate(111.246 43.912)" opacity="0.05">
    <path id="Path_227" data-name="Path 227" d="M800.084,611.641a.724.724,0,0,1-.336-.532l-.038.065s-.342.84.25,1.213c.067.043.132.086.191.127.11-.021.228-.037.341-.065C800.993,612.326,800.676,612.016,800.084,611.641Z" transform="translate(-797.039 -576.578)"/>
    <path id="Path_228" data-name="Path 228" d="M831.392,609.517c.1-.092.1-.331.037-.637a1.789,1.789,0,0,0-.208.9A.777.777,0,0,1,831.392,609.517Z" transform="translate(-823.617 -574.703)"/>
    <path id="Path_229" data-name="Path 229" d="M827.438,515.59a4.245,4.245,0,0,0-.248,1.144,4.62,4.62,0,0,1,.285-.786Z" transform="translate(-820.228 -496.261)"/>
    <path id="Path_230" data-name="Path 230" d="M881.228,503.531a1.452,1.452,0,0,0,.033-.341c-.046.232-.078.447-.1.637C881.181,503.729,881.2,503.637,881.228,503.531Z" transform="translate(-865.609 -485.834)"/>
    <path id="Path_231" data-name="Path 231" d="M827.738,581.462a2,2,0,0,0,.092-.692,2.35,2.35,0,0,0-.18.874A.834.834,0,0,1,827.738,581.462Z" transform="translate(-820.615 -551.067)"/>
    <path id="Path_232" data-name="Path 232" d="M804.738,622a12.347,12.347,0,0,0-.428,1.91l-3.764.435a7.83,7.83,0,0,1-.842-1.592,2.876,2.876,0,0,1-.107-.274c-.226.1-.318.337-.019,1.02a7.959,7.959,0,0,0,.844,1.592l3.764-.436a7.489,7.489,0,0,1,.652-2.335C805.029,622.14,804.912,622.046,804.738,622Z" transform="translate(-796.852 -585.735)"/>
    <path id="Path_233" data-name="Path 233" d="M786.369,424.815s.03,2.147.342,2.271h0c.159-.355.263-.692.123-.748-.318-.124-.342-2.273-.342-2.273a13.824,13.824,0,0,1-.466-3.237,6.192,6.192,0,0,0-.5-2.333l-.218-1.961a5.4,5.4,0,0,1-.684-3.705v-3.024s-.872-5.85-1-8.808c-.08-1.894-.057-4.479-.032-6.091,0-.291.01-.549.014-.767l-.107.011s-.017.6-.032,1.5c-.025,1.612-.049,4.2.032,6.089.124,2.957.995,8.809.995,8.809v3.024a5.4,5.4,0,0,0,.686,3.7l.216,1.961a6.227,6.227,0,0,1,.5,2.335A13.856,13.856,0,0,0,786.369,424.815Z" transform="translate(-783.448 -394.14)"/>
    <path id="Path_234" data-name="Path 234" d="M867.49,623.649a3.642,3.642,0,0,1-.6-1.479c-.384.347.057,1.693.478,2.228.434.56,3.672.9,4.3-.126v-.592C870.82,624.513,867.9,624.178,867.49,623.649Z" transform="translate(-853.489 -585.878)"/>
    <path id="Path_235" data-name="Path 235" d="M898.836,609.251a6.291,6.291,0,0,0-.436.934v.441a6.528,6.528,0,0,1,.318-.624,1.913,1.913,0,0,0,.137-.772S898.841,609.244,898.836,609.251Z" transform="translate(-880.105 -574.998)"/>
    <path id="Path_236" data-name="Path 236" d="M863.2,588.15a6.137,6.137,0,0,0,.307-.74s-.53.124-1.37-.872a4.422,4.422,0,0,1-.559-2.987c-.159.53-.406,2.739.435,3.735A2.217,2.217,0,0,0,863.2,588.15Z" transform="translate(-849.009 -553.405)"/>
    <path id="Path_237" data-name="Path 237" d="M833.377,478.63a16.6,16.6,0,0,1,.062,1.845,2.523,2.523,0,0,1,.064-.288,10.811,10.811,0,0,0,0-2.3,4.6,4.6,0,0,0-.218-1.65,20.087,20.087,0,0,1-.77-2.709,1.832,1.832,0,0,0-.436-1.182,5.325,5.325,0,0,1-.716-1.993,2.048,2.048,0,0,1-.318-1.339,2.71,2.71,0,0,0-.528-1.619l-1.058-3.361-1-2.521-.562,1.464s0,.185-.019.477l.455-1.189,1,2.516,1.058,3.361a2.71,2.71,0,0,1,.528,1.619,2.048,2.048,0,0,0,.318,1.338,5.308,5.308,0,0,0,.716,1.993,1.822,1.822,0,0,1,.434,1.182,20.481,20.481,0,0,0,.778,2.706A4.6,4.6,0,0,1,833.377,478.63Z" transform="translate(-820.809 -450.788)"/>
  </g>
  <path id="Path_238" data-name="Path 238" d="M862.68,193.791l-.234,1.136.014.506.01.372-1.3.134-.145-.269h0a12.059,12.059,0,0,0-1.007-1.63c-.24-.2-.668-3.361-.159-3.174a1.357,1.357,0,0,1,.723.654S863.14,191.814,862.68,193.791Z" transform="translate(-736.251 -179.3)" fill="#ffcdd3"/>
  <path id="Path_239" data-name="Path 239" d="M869.894,219.169l-1.3.134-.145-.269h0a1.144,1.144,0,0,1,1.432-.236Z" transform="translate(-743.675 -202.663)" opacity="0.1"/>
  <path id="Path_240" data-name="Path 240" d="M869.826,220.408l-1.713.4-.037-.255-.1-.686a1.179,1.179,0,0,1,1.658-.226l.086.349Z" transform="translate(-743.28 -203.286)" fill="#6c63ff"/>
  <path id="Path_241" data-name="Path 241" d="M683.48,181.2l-1.829.98-.159-.344c-.173-.364-.433-.914-.5-1.114-.108-.3-.871-.684-.871-.684-1.91-1.829.366-3.4.366-3.4,1.206-2.427,2.546.824,2.546.824a8.242,8.242,0,0,1,.056,1.829c-.132.115-.132.584-.132.584a7.181,7.181,0,0,1,.441,1.046C683.45,181.092,683.48,181.2,683.48,181.2Z" transform="translate(-584.674 -166.584)" fill="#ffcdd3"/>
  <path id="Path_242" data-name="Path 242" d="M694.778,208.533l-1.829.98-.159-.344c.258-.216,1.173-.955,1.474-.925a2.2,2.2,0,0,0,.433.011C694.748,208.427,694.778,208.533,694.778,208.533Z" transform="translate(-595.972 -193.918)" opacity="0.1"/>
  <path id="Path_243" data-name="Path 243" d="M695.225,209.749l-2.055,1.012-.041-.441-.029-.306s1.19-1.02,1.542-.98a1.87,1.87,0,0,0,.536,0l.024.369Z" transform="translate(-596.233 -194.581)" fill="#6c63ff"/>
  <path id="Path_244" data-name="Path 244" d="M807.971,220.03s-8.957,1.011-7.283.466a2.239,2.239,0,0,0,1.725-1.942,4.664,4.664,0,0,0-.333-2.069,9.025,9.025,0,0,0-.8-1.619s6.844-3.766,5.476-.342a5.52,5.52,0,0,0-.388,1.622,4.583,4.583,0,0,0,.177,1.642A4.891,4.891,0,0,0,807.971,220.03Z" transform="translate(-686.523 -197.99)" fill="#ffcdd3"/>
  <path id="Path_245" data-name="Path 245" d="M811.012,214.495a5.52,5.52,0,0,0-.388,1.622,3.148,3.148,0,0,1-2.26.506,4.044,4.044,0,0,1-2.028-.167,9.029,9.029,0,0,0-.8-1.619S812.382,211.071,811.012,214.495Z" transform="translate(-690.778 -197.965)" opacity="0.1"/>
  <circle id="Ellipse_33" data-name="Ellipse 33" cx="3.704" cy="3.704" r="3.704" transform="translate(113.761 11.489)" fill="#ffcdd3"/>
  <path id="Path_246" data-name="Path 246" d="M807.971,242.8s-8.957,1.011-7.283.466a2.239,2.239,0,0,0,1.725-1.942,5,5,0,0,1,1.91-1.017,2.68,2.68,0,0,1,1.623-.027,2.307,2.307,0,0,1,.59.274A4.891,4.891,0,0,0,807.971,242.8Z" transform="translate(-686.523 -220.764)" opacity="0.1"/>
  <path id="Path_247" data-name="Path 247" d="M870.339,223.264l-1.712.4-.037-.255a1.515,1.515,0,0,1,1.647-.563Z" transform="translate(-743.793 -206.142)" opacity="0.1"/>
  <path id="Path_248" data-name="Path 248" d="M695.376,211.7l-2.055,1.012-.041-.441a14.988,14.988,0,0,1,2.069-.918Z" transform="translate(-596.384 -196.53)" opacity="0.1"/>
  <path id="Path_249" data-name="Path 249" d="M797.321,387.967c-3.471.554-8.4,1.261-9.188,1.022a22.953,22.953,0,0,0-4.533-.115c.016-.9.032-1.5.032-1.5l13.445-1.4A11.239,11.239,0,0,0,797.321,387.967Z" transform="translate(-672.329 -343.358)" opacity="0.1"/>
  <path id="Path_250" data-name="Path 250" d="M721.988,240.971s-11.422,1.961-12.648,1.592-7.52.03-7.52.03c-2.833,1.9-1.65-.9-1.65-.9a6.963,6.963,0,0,1,.094-2.645,16.169,16.169,0,0,0,.469-2.648,6.167,6.167,0,0,1,.28-2.3,17.753,17.753,0,0,0,.748-3.548s.31-2.117.28-2.583.092-1.775.092-1.775l.406-2.179c-2.335-.31-9.431-4.668-9.431-4.668-.342-1.463-2.987-4.886-2.987-4.886a3.6,3.6,0,0,0-.218-.84c-.186-.5,2.615-1.494,2.615-1.494s2.085,2.546,2.521,3.237a13.881,13.881,0,0,0,1.929,1.961,1.5,1.5,0,0,1,.684.089l.037.011h0a5.547,5.547,0,0,1,1.393.8,2.706,2.706,0,0,1,1.9.716s1.273-.188,1.494.03,1.307,0,1.307,0,1.089-2.3,1.8-1.635,3.755.637,3.755.637a4.4,4.4,0,0,1,2.005-1.114,2.691,2.691,0,0,1,1.623-.027,2.059,2.059,0,0,1,.637.318l1.848,1.8s.528-.686.466-.84.622-.28.622-.28.9-.28,1.245-.374.656.277.684.31a3.722,3.722,0,0,1-.159-1.369,1.617,1.617,0,0,0-.374-1.114c1.089-2.677,3.547-.436,3.547-.436a5.134,5.134,0,0,1,.032,2.023c-.248.56.248,1.743.186,2.055s.126.84.126,1.432a8.753,8.753,0,0,1-.5,2.209c-.18.5-1.681,1.619-1.681,1.619a7.027,7.027,0,0,1-.748,2.8c-.654,1.027-.244,4.537-.244,4.537a11.727,11.727,0,0,0,1.4,3.611C720.838,236,721.988,240.971,721.988,240.971Z" transform="translate(-593.537 -197.177)" fill="#3f3d56"/>
  <path id="Path_251" data-name="Path 251" d="M778.707,254.672s-.342-1.027-.654-1.114a7.2,7.2,0,0,1-.9-.4l.2-.384s1.168.318,1.356.664A2.641,2.641,0,0,1,778.707,254.672Z" transform="translate(-666.906 -231.357)" opacity="0.1"/>
  <path id="Path_252" data-name="Path 252" d="M732.653,246.153c-.062.318-2.833.59-2.833.59l1.4-1.4h0l.035.013h0A5.548,5.548,0,0,1,732.653,246.153Z" transform="translate(-627.109 -225.11)" opacity="0.1"/>
  <circle id="Ellipse_34" data-name="Ellipse 34" cx="0.248" cy="0.248" r="0.248" transform="translate(97.281 16.523)" fill="#575988"/>
  <circle id="Ellipse_35" data-name="Ellipse 35" cx="0.248" cy="0.248" r="0.248" transform="translate(97.599 17.021)" fill="#575988"/>
  <circle id="Ellipse_36" data-name="Ellipse 36" cx="0.248" cy="0.248" r="0.248" transform="translate(97.911 17.481)" fill="#575988"/>
  <circle id="Ellipse_37" data-name="Ellipse 37" cx="0.248" cy="0.248" r="0.248" transform="translate(98.238 17.978)" fill="#575988"/>
  <circle id="Ellipse_38" data-name="Ellipse 38" cx="0.202" cy="0.202" r="0.202" transform="translate(127.622 17.997)" fill="#575988"/>
  <circle id="Ellipse_39" data-name="Ellipse 39" cx="0.202" cy="0.202" r="0.202" transform="translate(127.654 18.457)" fill="#575988"/>
  <circle id="Ellipse_40" data-name="Ellipse 40" cx="0.202" cy="0.202" r="0.202" transform="translate(127.681 18.915)" fill="#575988"/>
  <path id="Path_253" data-name="Path 253" d="M787,317.719c-.03-.037,6.987,8.823,12.433,3.7C799.437,321.424,790.832,322.591,787,317.719Z" transform="translate(-675.188 -285.97)" opacity="0.1"/>
  <path id="Path_254" data-name="Path 254" d="M761.7,346.66s4.2.115,4.638,1.323v1.257a.805.805,0,0,1-.781,0c-.423-.229-2.962-1.518-3.856-.9Z" transform="translate(-653.915 -310.305)" opacity="0.1"/>
  <path id="Path_255" data-name="Path 255" d="M762.19,346.66s4.015.11,4.436,1.262v1.2a.77.77,0,0,1-.748,0c-.4-.216-2.831-1.447-3.688-.855Z" transform="translate(-654.327 -310.305)" fill="#3f3d56"/>
  <path id="Path_256" data-name="Path 256" d="M776.1,289.38a13.51,13.51,0,0,0,1.628,2.793,10.96,10.96,0,0,0,2.546,2.462S776.17,289.956,776.1,289.38Z" transform="translate(-666.023 -262.141)" opacity="0.1"/>
  <path id="Path_257" data-name="Path 257" d="M767.47,258.73s.7,3.024,2.505,4.05Z" transform="translate(-658.767 -236.369)" opacity="0.1"/>
  <path id="Path_258" data-name="Path 258" d="M760.39,260.645c-.018-.056-.622,2.387,2.327,3.745C762.717,264.39,761.464,263.965,760.39,260.645Z" transform="translate(-652.761 -237.978)" opacity="0.1"/>
  <path id="Path_259" data-name="Path 259" d="M875.9,247.9a20.994,20.994,0,0,1,1.864,1.4S876.791,247.836,875.9,247.9Z" transform="translate(-749.942 -227.26)" opacity="0.1"/>
  <path id="Path_260" data-name="Path 260" d="M799.957,190.616a.584.584,0,0,0,.637.578,7.406,7.406,0,0,0,3.342-.318,1.274,1.274,0,0,0,.509-.337,2.1,2.1,0,0,0,.3-.82,11.913,11.913,0,0,1,.683-1.572,5.268,5.268,0,0,0,.368-2.825,1.909,1.909,0,0,0-.283-.826c-.3-.428-.845-.6-1.241-.942s-.651-.861-1.114-1.114a2.139,2.139,0,0,0-1.4-.124,7.336,7.336,0,0,0-2.607.979,1.33,1.33,0,0,1-.872.3,1.166,1.166,0,0,1-.637-.492,3.447,3.447,0,0,0-.266,1.615.693.693,0,0,1-.008.243.732.732,0,0,1-.173.256.942.942,0,0,0-.177,1.163c.119.142.3.22.42.364.208.259.138.637.134.968a.5.5,0,0,0,.083.328.478.478,0,0,0,.457.11,1.243,1.243,0,0,1,.487-.046.817.817,0,0,1,.423.318A5.982,5.982,0,0,1,799.957,190.616Z" transform="translate(-683.493 -172.067)" fill="#2d293d"/>
  <g id="Group_92" data-name="Group 92" transform="translate(113.384 10.998)" opacity="0.1">
    <path id="Path_261" data-name="Path 261" d="M804.578,206.605a1.274,1.274,0,0,1-.509.337,7.511,7.511,0,0,1-3.342.318.586.586,0,0,1-.638-.579,5.806,5.806,0,0,0-.944-2.19.818.818,0,0,0-.423-.326,1.305,1.305,0,0,0-.487.046.478.478,0,0,1-.457-.108.5.5,0,0,1-.083-.328c0-.334.075-.708-.134-.968-.116-.145-.3-.223-.42-.366a.726.726,0,0,1-.072-.742.849.849,0,0,0-.052.992c.119.142.3.22.42.364.208.261.138.637.134.968a.5.5,0,0,0,.081.328.478.478,0,0,0,.458.11,1.243,1.243,0,0,1,.487-.046.817.817,0,0,1,.423.318,5.817,5.817,0,0,1,.944,2.192.8.8,0,0,0,.275.5.772.772,0,0,0,.35.076,7.383,7.383,0,0,0,3.342-.318,1.261,1.261,0,0,0,.509-.337.973.973,0,0,0,.159-.3A.079.079,0,0,1,804.578,206.605Z" transform="translate(-796.877 -199.413)"/>
    <path id="Path_262" data-name="Path 262" d="M799.945,189.125a.544.544,0,0,0,.113-.188.694.694,0,0,0,0-.244,3.453,3.453,0,0,1,.173-1.34l-.021-.024a3.423,3.423,0,0,0-.266,1.614,1.147,1.147,0,0,1,0,.181Z" transform="translate(-799.448 -187.33)"/>
  </g>
  <path id="Path_263" data-name="Path 263" d="M812.08,248.451s4.627.614,5.042-.081" transform="translate(-696.277 -227.658)" opacity="0.1"/>
  <path id="Path_264" data-name="Path 264" d="M868.59,236.85s2.572,0,3.137.968" transform="translate(-743.793 -217.971)" opacity="0.1"/>
  <path id="Path_265" data-name="Path 265" d="M941.031,765.236a4.079,4.079,0,0,1-2.777,1.038c-.261,0-.622.049-.624.31a.438.438,0,0,0,.076.213,2.554,2.554,0,0,0,1.432,1.125,5.064,5.064,0,0,0,1.733.11l1.695-.088c.318-.018.637-.033.955-.073s.665-.105,1-.159a13.053,13.053,0,0,1,2.469-.115.747.747,0,0,0,.608-.159c.131-.159.064-.463.014-.7-.1-.492,0-1.007-.094-1.5a2.636,2.636,0,0,0-1.73-1.843c-.764-.29-2.117-.622-2.839-.138A18.7,18.7,0,0,0,941.031,765.236Z" transform="translate(-801.845 -660.39)" fill="#3f3d56"/>
  <path id="Path_266" data-name="Path 266" d="M951.6,576.071c.15.711.839,1.256.858,1.981a3.1,3.1,0,0,1-.7,1.569,10.469,10.469,0,0,0-.711,1.611,24.605,24.605,0,0,1-2.088,4.154,3.324,3.324,0,0,0-.753,2.056,3.083,3.083,0,0,0,.361.984l1.194,2.371a6.865,6.865,0,0,1,.61,1.5c.1.45.113.917.173,1.375.188,1.455.871,2.919.466,4.329-.035.121-.159.267-.256.183a4.536,4.536,0,0,1,.681,2.314,3.225,3.225,0,0,0,.011,1.3,1.426,1.426,0,0,1,.186.512,3.26,3.26,0,0,1-.068.352.776.776,0,0,0,.6.723c.32.107.668.1.992.2a6.088,6.088,0,0,1,1.592,1.092,3.388,3.388,0,0,0,1.833.6.461.461,0,0,0,.271-.054.437.437,0,0,0,.15-.328,1.82,1.82,0,0,0-.656-1.582.716.716,0,0,1-.243-.255.614.614,0,0,1-.022-.285,21.447,21.447,0,0,0-.07-3.915,5.951,5.951,0,0,1-.062-1.246,5.087,5.087,0,0,0,.1-1.036,5.5,5.5,0,0,0-.318-.993,7.155,7.155,0,0,1-.159-1.848,16.2,16.2,0,0,0-.524-3.183,2.407,2.407,0,0,0-.495-1.149c-.248-.259-.649-.508-.555-.853a1.012,1.012,0,0,1,.228-.339,1.361,1.361,0,0,0,.283-1.038.466.466,0,0,0,.536-.251,8.391,8.391,0,0,0,4.2-4.775,1.574,1.574,0,0,1,.188-.427,1.922,1.922,0,0,1,.769-.5,5.839,5.839,0,0,0,2.02-2.059,3.64,3.64,0,0,0,.886-2.57l.049-1.87a1.01,1.01,0,0,0-.035-.366.915.915,0,0,0-.2-.3,3.594,3.594,0,0,0-1.983-1.069c-.509-.091-1.03-.073-1.545-.116a19.214,19.214,0,0,0-2.986-.318,4.778,4.778,0,0,0-3.71,2.6C952.43,575.635,952.156,576.062,951.6,576.071Z" transform="translate(-810.729 -500.233)" fill="#464353"/>
  <path id="Path_267" data-name="Path 267" d="M905.61,496.521a2.088,2.088,0,0,1-.115.852.6.6,0,0,1-.7.358c.081-.183-.134-.392-.334-.369a.626.626,0,0,0-.441.379,1.409,1.409,0,0,0-.127.864,3.5,3.5,0,0,1,.22,1.085c-.045.306-.269.61-.15.893a1.445,1.445,0,0,0,.288.345.974.974,0,0,1-.1,1.337l3.011.06a2.126,2.126,0,0,0,.374,1.464,9.23,9.23,0,0,0,6.882,4.493.6.6,0,0,0-.145.915.85.85,0,0,0,.968.056,6.9,6.9,0,0,0,.828-.621,2.546,2.546,0,0,1,1.7-.458c.377.037.743.159,1.122.178,1.114.059,2.069-.743,3.142-1.071a7.253,7.253,0,0,0,2.324-.729.926.926,0,0,0,.433-.9,1.5,1.5,0,0,0-.318-.527,9.1,9.1,0,0,1-.871-1.631,9.757,9.757,0,0,0-2.176-2.916,19.456,19.456,0,0,0-2.158-1.636,3.682,3.682,0,0,0-.583-.352,6.539,6.539,0,0,1-.8-.318,4.244,4.244,0,0,1-.829-.933,12.43,12.43,0,0,0-2.249-1.564,5.333,5.333,0,0,0-1.518-1.028c-.286-.088-.59-.094-.877-.18-.651-.2-1.125-.775-1.763-1.009a7.075,7.075,0,0,0-1.592-.2,3.725,3.725,0,0,1-1.663-.633,1.977,1.977,0,0,0-.53-.309c-.807-.245-.872,1.257-.955,1.778A17.158,17.158,0,0,0,905.61,496.521Z" transform="translate(-773.461 -432.842)" fill="#6c63ff"/>
  <path id="Path_268" data-name="Path 268" d="M860.791,537.041c.135,1.467-.972,2.889-.649,4.326.068.306.2.6.248.907a3.479,3.479,0,0,1-.859,2.371l-4.17,6.12a3.848,3.848,0,0,1-.6.735c-.8.708-1.993.637-3.04.847a5.252,5.252,0,0,0-2.037.9.132.132,0,0,0-.026.183,1.751,1.751,0,0,0,1.514.711c.11.143,0,.357-.151.46-.223.159-.532.2-.576.576a.636.636,0,0,0,.076.382,1.189,1.189,0,0,0,.729.506,4.327,4.327,0,0,0,4.084-1.389c1.081-1.055,1.856-2.387,2.916-3.46.587-.6,1.254-1.1,1.859-1.679a21.266,21.266,0,0,0,3.049-3.945,4.367,4.367,0,0,0,.661-1.343c.113-.489.06-.984.189-1.456a5.352,5.352,0,0,1,1-1.633,5.4,5.4,0,0,0,1.136-3.52,3.374,3.374,0,0,0-2.059-2.92,1.851,1.851,0,0,0-1.154-.07,2.733,2.733,0,0,0-1.175.936l-.8.914a2.132,2.132,0,0,0-.447.7.734.734,0,0,0,.159.78" transform="translate(-727.857 -468.323)" fill="#fbbebe"/>
  <path id="Path_269" data-name="Path 269" d="M918.755,511.9a2.281,2.281,0,0,0-1.537.477,2.186,2.186,0,0,0-.388.608,6.055,6.055,0,0,0-.769,2.419,11.068,11.068,0,0,0,.279,2.021,7.731,7.731,0,0,1-.173,1.7,11.787,11.787,0,0,0,2.193-.844,7.34,7.34,0,0,1,1.284-.667,3.864,3.864,0,0,1,2.373.461c.033-.436-.294-1.2-.259-1.634a1.824,1.824,0,0,1,.1-.541,3.286,3.286,0,0,1,.329-.524,2.142,2.142,0,0,0-.193-2.51,3.5,3.5,0,0,0-2.241-.955,9.69,9.69,0,0,0-1.564-.054" transform="translate(-783.707 -449.2)" fill="#6c63ff"/>
</svg>
