<svg xmlns="http://www.w3.org/2000/svg" width="87.099" height="108.438" viewBox="0 0 87.099 108.438">
  <g id="Savings_Icon" data-name="Savings Icon" transform="translate(-937.959 -5987)">
    <path id="Path_155" data-name="Path 155" d="M522.636,666.79a6.326,6.326,0,0,0-3.775-2.614,18.383,18.383,0,0,0-4.206-.247l-17.753.137a2.908,2.908,0,1,0,0,5.815l15.6-.12c1.226-.009,2.453-.032,3.679-.028.275,0,.55.015.825.019.067,0,.115,0,.149,0l.027.008c.143.039.291.067.435.1-.051,0,.094.091.166.122.01.02.031.054.067.108.049.093.2.374.2.365a13.048,13.048,0,0,1,.543,1.707,9.56,9.56,0,0,1,.461,2.75,2.908,2.908,0,1,0,5.815,0C524.76,672.172,524.279,669.09,522.636,666.79Z" transform="translate(475.043 5416.217)" fill="#e6e6e6"/>
    <path id="Path_156" data-name="Path 156" d="M424.325,486.377c-.333-2.021-.661-4.043-1-6.062a8.356,8.356,0,0,0-2.644-5.27c-.426-.359-.868-.695-1.311-1.029-.156-.118-.312-.235-.466-.355l-.023-.018-.065-.055c-.665-.562-1.307-1.15-1.918-1.774q-.815-.832-1.558-1.735-.186-.225-.367-.455l-.206-.265-.215-.295q-.211-.3-.415-.6a28.373,28.373,0,0,1-2.4-4.382q-.1-.227-.194-.457l-.068-.187c-.135-.37-.269-.74-.392-1.115q-.393-1.194-.675-2.424-.14-.607-.251-1.22-.058-.315-.108-.632c-.005-.035-.038-.263-.057-.392s-.041-.358-.044-.394q-.032-.319-.057-.639-.056-.72-.075-1.442-.034-1.283.046-2.566c.03-.481.073-.96.126-1.438L410,451.1l.011-.076c.039-.264.08-.528.126-.792a28.953,28.953,0,0,1,.68-2.965q.2-.692.429-1.373.1-.3.213-.6c0,.013.215-.548.218-.567.871-2.059,2.3-3.936,2.3-6.274a2.91,2.91,0,1,0-5.815,0c0,.036,0,.066,0,.1l-.038.127c-.17.369-.378.72-.565,1.08-.511.986-.947,2-1.361,3.036a29.047,29.047,0,0,0-1.55,5.2,33.092,33.092,0,0,0-.176,11.819,30.5,30.5,0,0,0,10.014,17.871c.449.384.908.754,1.372,1.118.192.15.385.3.58.444.092.069.473.37.305.224a1.853,1.853,0,0,1,.6.689l.056.22c.065.255.127.51.179.769.45,2.263.763,4.563,1.138,6.841a2.908,2.908,0,0,0,3.577,2.114A3.131,3.131,0,0,0,424.325,486.377Z" transform="translate(548.664 5603.191)" fill="#e6e6e6"/>
    <path id="Path_157" data-name="Path 157" d="M437.516,419.283a4.611,4.611,0,0,1-4.623-4.589v-3.317a125.539,125.539,0,0,1-18.772-.249v3.433a4.623,4.623,0,1,1-9.246,0v-6.741A29.658,29.658,0,0,1,417.1,352.377c.8-.063,1.614-.1,2.406-.1,2.79,0,15.377.431,18.536,1.34l7.2-7.146a.756.756,0,0,1,.827-.165.745.745,0,0,1,.47.7v1.136l1.4-1.389a.754.754,0,0,1,.826-.165.745.745,0,0,1,.47.7v12.7a29.578,29.578,0,0,1-7.1,48.678v6.028A4.611,4.611,0,0,1,437.516,419.283Zm-4.26-8.317v3.729a4.26,4.26,0,1,0,8.519,0v-6.257l.1-.049a29.522,29.522,0,0,0,12.09-10.573,29.135,29.135,0,0,0-5.034-37.61l-.06-.054V347.292a.382.382,0,0,0-.244-.363.391.391,0,0,0-.433.086l-2.022,2V347.01a.382.382,0,0,0-.244-.363.391.391,0,0,0-.433.087l-7.356,7.3-.1-.033c-2.936-.919-15.722-1.355-18.533-1.355-.783,0-1.582.032-2.377.094a29.453,29.453,0,0,0-16.035,6.314,29.164,29.164,0,0,0,4.049,48.5l.094.052v6.955a4.26,4.26,0,1,0,8.52,0v-3.868l.215.04c3.063.576,15.961.667,19.078.258Z" transform="translate(560.457 5676.154)" fill="#3f3d56"/>
    <path id="Path_158" data-name="Path 158" d="M418.951,270.3l-20.124,6.048a2.523,2.523,0,0,0,1.452,4.832l17.611-5.294.369-.111a12.27,12.27,0,0,1,1.507-5.426,1.12,1.12,0,0,0-.363-.095A1.158,1.158,0,0,0,418.951,270.3Z" transform="translate(554.386 5738.346)" fill="#6c63ff"/>
    <path id="Path_159" data-name="Path 159" d="M401.6,284.494a1.274,1.274,0,0,1-1.206-.873l-1.258-3.8a1.272,1.272,0,0,1,.807-1.608l16.379-5.428a1.272,1.272,0,0,1,1.608.807l1.258,3.8a1.268,1.268,0,0,1-.762,1.592l-.046.016-16.379,5.428A1.273,1.273,0,0,1,401.6,284.494Z" transform="translate(552.712 5736.322)" fill="#2f2e41"/>
    <path id="Path_160" data-name="Path 160" d="M524.511,233.42A12.726,12.726,0,0,0,511.8,245.75c0,.129-.005.26-.005.391a12.721,12.721,0,1,0,12.721-12.721Zm0,25.078a12.37,12.37,0,0,1-12.357-12.357q0-.253.011-.5A12.357,12.357,0,1,1,524.511,258.5Z" transform="translate(460.48 5768.483)" fill="#3f3d56"/>
    <path id="Path_161" data-name="Path 161" d="M544.234,255.141a10.722,10.722,0,1,1-21.444,0c0-.34.016-.674.047-1a10.722,10.722,0,0,1,21.4,1Z" transform="translate(451.479 5759.483)" fill="#e6e6e6"/>
    <path id="Path_162" data-name="Path 162" d="M568.781,275.55a2.553,2.553,0,0,0-.994-.787,9.655,9.655,0,0,0-1.494-.491v-2.919a4.251,4.251,0,0,1,2.124.969l.592-1.263a3.919,3.919,0,0,0-1.156-.714,5.681,5.681,0,0,0-1.467-.376V268.49h-1.372v1.494a3.757,3.757,0,0,0-1.5.5,2.98,2.98,0,0,0-1.016,1,2.5,2.5,0,0,0-.362,1.325,2.265,2.265,0,0,0,.416,1.417,2.637,2.637,0,0,0,1.036.821,9.573,9.573,0,0,0,1.519.5v2.8a4.541,4.541,0,0,1-2.528-1.009l-.592,1.265a4.467,4.467,0,0,0,1.352.767,6.207,6.207,0,0,0,1.674.349v1.467h1.372v-1.494a3.551,3.551,0,0,0,2.037-.934,2.47,2.47,0,0,0,.76-1.835A2.191,2.191,0,0,0,568.781,275.55Zm-3.671-1.586a2.635,2.635,0,0,1-.914-.491.967.967,0,0,1-.323-.76,1.222,1.222,0,0,1,.331-.874,1.672,1.672,0,0,1,.907-.471Zm2.044,3.867a1.555,1.555,0,0,1-.861.449v-2.406a2.406,2.406,0,0,1,.861.431.847.847,0,0,1,.3.672,1.237,1.237,0,0,1-.3.854Z" transform="translate(419.402 5739.786)" fill="#6c63ff"/>
    <path id="Path_163" data-name="Path 163" d="M407.39,373.337a1.276,1.276,0,0,1-1.231-.948l-.685-2.593a1.273,1.273,0,0,1,.9-1.554l21.615-5.712a1.275,1.275,0,0,1,1.554.906l.58,2.2-.109.008a29.106,29.106,0,0,0-15.285,5.792l-.032.015-6.989,1.846A1.265,1.265,0,0,1,407.39,373.337Z" transform="translate(547.51 5662.87)" fill="#2f2e41"/>
    <path id="Path_164" data-name="Path 164" d="M336.366,424.3a17.829,17.829,0,0,1-7.11-2.688,17.361,17.361,0,0,1-2.939-2.4,9.018,9.018,0,0,1-2.151-3.1,4.6,4.6,0,0,1,.06-3.411,4.422,4.422,0,0,1,2.393-2.385,4.566,4.566,0,0,1,3.463-.005,3.105,3.105,0,0,1,1.266,1.019,2.078,2.078,0,0,1,.329.683,1.394,1.394,0,0,1,.016.683,1.638,1.638,0,0,1-.868,1.04,4.373,4.373,0,0,1-1.481.452,2.044,2.044,0,0,1-1.684-.282.848.848,0,0,1-.2-.293.566.566,0,0,1-.031-.265c-.006.039.025-.086.023-.081s-.035.064.005-.006a.618.618,0,0,1,.042-.066c-.014.018-.044.048.01,0a.357.357,0,0,1,.166-.1l.076-.02c.064-.017-.064,0,0,0h.076c.064,0-.063-.018,0,0,.024.006.048.012.071.019.051.016-.036-.038,0,0s-.043-.046,0,0a.84.84,0,0,1,.065.072.429.429,0,0,0,.6,0,.436.436,0,0,0,0-.6,1.154,1.154,0,0,0-1.675.048,1.385,1.385,0,0,0,.2,1.94,2.682,2.682,0,0,0,2.209.5,5.418,5.418,0,0,0,1.866-.527,2.617,2.617,0,0,0,1.276-1.379,2.394,2.394,0,0,0-.192-1.957,4.222,4.222,0,0,0-3.468-2.04,5.418,5.418,0,0,0-3.965,1.3,5.48,5.48,0,0,0-1.8,3.648,6.248,6.248,0,0,0,1.265,4.037,15.379,15.379,0,0,0,3.049,3.154,18.622,18.622,0,0,0,7.78,3.669q.507.1,1.02.179a.44.44,0,0,0,.524-.3.429.429,0,0,0-.3-.524Z" transform="translate(614.955 5624.715)" fill="#3f3d56"/>
    <path id="Path_165" data-name="Path 165" d="M559.274,390.731q-5.572-.079-11.109.283c-1.262.082-2.353.528-2.353,1.278,0,.627,1.083,1.361,2.353,1.278q5.534-.361,11.109-.283C562.3,393.329,562.3,390.773,559.274,390.731Z" transform="translate(432.641 5639.771)" fill="#ccc"/>
    <path id="Path_166" data-name="Path 166" d="M545.409,392.3c-.4,0-9.832-.015-9.832-1.318s9.431-1.318,9.832-1.318,9.832.015,9.832,1.318S545.81,392.3,545.409,392.3Zm-9.464-1.318c.258.395,3.725.954,9.464.954s9.206-.559,9.464-.954c-.258-.395-3.725-.954-9.464-.954s-9.206.559-9.464.954Z" transform="translate(441.016 5640.635)" fill="#3f3d56"/>
    <path id="Path_167" data-name="Path 167" d="M754.177,495.8c2.088-.058,4.686-.13,6.688-1.593a5.136,5.136,0,0,0,2.021-3.835,3.455,3.455,0,0,0-1.175-2.837,4.459,4.459,0,0,0-4.217-.607l1.7-12.457-1.251-.171-2,14.645,1.045-.479c1.211-.556,2.874-.838,3.908.035a2.22,2.22,0,0,1,.728,1.829,3.882,3.882,0,0,1-1.5,2.859c-1.558,1.138-3.629,1.285-5.978,1.35Z" transform="translate(262.17 5571.378)" fill="#3f3d56"/>
    <rect id="Rectangle_50" data-name="Rectangle 50" width="6.802" height="1.263" transform="translate(1006.085 6046.922)" fill="#3f3d56"/>
    <path id="Path_168" data-name="Path 168" d="M425.56,415.179a1.274,1.274,0,0,1-1.255-1.075l-.415-2.65A1.273,1.273,0,0,1,424.95,410l22.085-3.461a1.273,1.273,0,0,1,1.454,1.06l.415,2.65a1.273,1.273,0,0,1-1.06,1.454l-22.086,3.46A1.291,1.291,0,0,1,425.56,415.179Z" transform="translate(532.419 5626.836)" fill="#2f2e41"/>
    <circle id="Ellipse_25" data-name="Ellipse 25" cx="9.268" cy="9.268" r="9.268" transform="translate(939.57 5992.425)" fill="#6c63ff"/>
    <path id="Path_169" data-name="Path 169" d="M406.751,218.311a2.2,2.2,0,0,0,.794-.486,1.478,1.478,0,0,0,.41-1.178.994.994,0,0,0-.456-.757,1.286,1.286,0,0,0-1.226.009l-.052-3.618-.363.005.061,4.253.277-.181a1.1,1.1,0,0,1,1.113-.158.639.639,0,0,1,.286.489,1.117,1.117,0,0,1-.3.878,3,3,0,0,1-1.643.642l.064.358A5.991,5.991,0,0,0,406.751,218.311Z" transform="translate(547.335 5785.78)" fill="#2f2e41"/>
    <rect id="Rectangle_51" data-name="Rectangle 51" width="1.957" height="0.363" transform="matrix(0.989, -0.15, 0.15, 0.989, 955.362, 5998.101)" fill="#2f2e41"/>
    <rect id="Rectangle_52" data-name="Rectangle 52" width="1.957" height="0.363" transform="matrix(0.989, -0.15, 0.15, 0.989, 949.253, 5999.025)" fill="#2f2e41"/>
    <path id="Path_170" data-name="Path 170" d="M378.479,313.272a1.641,1.641,0,0,1-1.533-1.064l-6.39-17.113a8.456,8.456,0,0,1,4.958-10.868l5.2-1.94a1.628,1.628,0,0,1,1.25.043,1.6,1.6,0,0,1,.85.906l11.837,22.349a1.636,1.636,0,0,1-.955,2.115l-14.641,5.467A1.631,1.631,0,0,1,378.479,313.272Z" transform="translate(576.484 5728.581)" fill="#2f2e41"/>
    <path id="Path_171" data-name="Path 171" d="M420.158,282.375,431.9,298.08l-7.947-15.541a1.468,1.468,0,0,0-1.881-.881Z" transform="translate(535.46 5729.083)" fill="#e6e6e6"/>
    <path id="Path_172" data-name="Path 172" d="M417.438,322.856l-20.97-1.351a2.522,2.522,0,1,1,.324-5.034l20.97,1.351a1.181,1.181,0,0,1,1.1,1.255l-.172,2.677a1.181,1.181,0,0,1-1.255,1.1Z" transform="translate(556.777 5700.528)" fill="#6c63ff"/>
    <path id="Path_173" data-name="Path 173" d="M408.383,319.359l-.083,0h0l-17.22-1.109a1.272,1.272,0,0,1-1.188-1.351l.294-4.572a1.272,1.272,0,0,1,1.351-1.188l17.22,1.109a1.273,1.273,0,0,1,1.188,1.351l-.294,4.572a1.276,1.276,0,0,1-.826,1.111A1.259,1.259,0,0,1,408.383,319.359Z" transform="translate(560.228 5704.892)" fill="#2f2e41"/>
    <path id="Path_174" data-name="Path 174" d="M333.759,159.943c1.219-1.049,2.894-.111,4.292-.275a3.314,3.314,0,0,0,2.664-2.632,4.1,4.1,0,0,0-1.595-3.9,5.906,5.906,0,0,0-4.465-1.119,11.165,11.165,0,0,0-4.91,2.064,22.143,22.143,0,0,0-3.9,3.3,8.519,8.519,0,0,0-2.213,4.083,5.6,5.6,0,0,0,.774,4.172,4.4,4.4,0,0,0,1.722,1.418c.716.351,1.479.6,2.172,1,1.048.6,2.067,1.846,1.739,3.142a1.779,1.779,0,0,1-.4.761c-.235.26-.658-.084-.422-.345a1.5,1.5,0,0,0,.177-1.617,2.957,2.957,0,0,0-1.314-1.445c-.726-.415-1.527-.671-2.27-1.049a4.911,4.911,0,0,1-1.8-1.493,6.073,6.073,0,0,1-.955-4.336,8.59,8.59,0,0,1,2.085-4.3,21.461,21.461,0,0,1,3.935-3.482,12.668,12.668,0,0,1,5.061-2.344,6.787,6.787,0,0,1,4.769.767,5.012,5.012,0,0,1,2.425,3.807,4.041,4.041,0,0,1-1.886,3.624,3.471,3.471,0,0,1-2.073.48,15.835,15.835,0,0,0-2.329-.221,1.625,1.625,0,0,0-.957.387c-.266.229-.584-.215-.32-.442Z" transform="translate(614.973 5835.587)" fill="#2f2e41"/>
  </g>
</svg>
